<?xml version="1.0" encoding="utf-8"?>
<!-- Generator: Adobe Illustrator 16.0.0, SVG Export Plug-In . SVG Version: 6.00 Build 0)  -->
<!DOCTYPE svg PUBLIC "-//W3C//DTD SVG 1.1//EN" "http://www.w3.org/Graphics/SVG/1.1/DTD/svg11.dtd">
<svg version="1.1" id="Layer_1" xmlns="http://www.w3.org/2000/svg" xmlns:xlink="http://www.w3.org/1999/xlink" x="0px" y="0px"
	 width="24px" height="18px" viewBox="0 0 24 18" enable-background="new 0 0 24 18" xml:space="preserve">
<path id="shopping-cart-3-icon" fill="#dbccbf" d="M8.921,9.512h11.956L24,2.447H6.699L8.921,9.512z M0,0.203h4.196l3.45,10.97
	h12.561l-1.027,2.332H5.94L2.491,2.535H0.743L0,0.203L0,0.203z M10.022,14.661c0.865,0,1.567,0.702,1.567,1.567
	c0,0.866-0.702,1.568-1.567,1.568c-0.866,0-1.567-0.702-1.567-1.568C8.455,15.363,9.156,14.661,10.022,14.661z M15.204,14.661
	c0.866,0,1.567,0.702,1.567,1.567c0,0.866-0.701,1.568-1.567,1.568s-1.567-0.702-1.567-1.568
	C13.637,15.363,14.338,14.661,15.204,14.661z"/>
</svg>
