<?xml version="1.0" encoding="utf-8"?>
<!-- Generator: Adobe Illustrator 16.0.0, SVG Export Plug-In . SVG Version: 6.00 Build 0)  -->
<!DOCTYPE svg PUBLIC "-//W3C//DTD SVG 1.1//EN" "http://www.w3.org/Graphics/SVG/1.1/DTD/svg11.dtd">
<svg version="1.1" id="Layer_1" xmlns="http://www.w3.org/2000/svg" xmlns:xlink="http://www.w3.org/1999/xlink" x="0px" y="0px"
	 width="34px" height="34px" viewBox="0 0 34 34" enable-background="new 0 0 34 34" xml:space="preserve">
<g>
	<circle fill="#002A41" cx="17" cy="17" r="3.077"/>
	<path fill="#002A41" d="M22.539,10.846h-1.846c-0.34,0-0.615,0.275-0.615,0.615v1.847c0,0.34,0.275,0.615,0.615,0.615h1.846
		c0.34,0,0.615-0.275,0.615-0.615v-1.847C23.154,11.121,22.879,10.846,22.539,10.846z"/>
	<path fill="#002A41" d="M21.921,17c0,2.719-2.203,4.923-4.921,4.923c-2.72,0-4.923-2.204-4.923-4.923
		c0-0.426,0.06-0.838,0.161-1.231h-1.393v6.77c0,0.34,0.275,0.615,0.615,0.615h11.078c0.34,0,0.614-0.275,0.614-0.615v-6.77h-1.392
		C21.863,16.164,21.921,16.575,21.921,17z"/>
	<path fill="#002A41" d="M17,0C7.611,0,0,7.611,0,17c0,9.389,7.611,17,17,17c9.389,0,17-7.611,17-17C34,7.611,26.389,0,17,0z
		 M25,23.154C25,24.173,24.174,25,23.154,25H10.846C9.827,25,9,24.173,9,23.152V10.846C9,9.826,9.827,9,10.846,9h12.308
		C24.174,9,25,9.826,25,10.846V23.154z"/>
</g>
</svg>
