<?xml version="1.0" encoding="utf-8"?>
<!-- Generator: Adobe Illustrator 16.0.0, SVG Export Plug-In . SVG Version: 6.00 Build 0)  -->
<!DOCTYPE svg PUBLIC "-//W3C//DTD SVG 1.1//EN" "http://www.w3.org/Graphics/SVG/1.1/DTD/svg11.dtd">
<svg version="1.1" id="Layer_1" xmlns="http://www.w3.org/2000/svg" xmlns:xlink="http://www.w3.org/1999/xlink" x="0px" y="0px"
	 width="50px" height="50px" viewBox="0 0 50 50" enable-background="new 0 0 50 50" xml:space="preserve">
<g>
	<path fill="#002A41" d="M48.604,26.202c-0.344,2.571-1.555,4.692-3.795,6.5c-0.312,0.259-0.479,0.981-0.479,0.981
		c1.164,6.434-4.953,11.938-10.96,10.482c0,0-0.569,0.6-0.681,0.729c-1.842,2.209-3.938,3.469-6.562,3.734l-0.703,0.129l0.057,1.17
		c2.9-0.188,5.329-1.332,7.273-3.396c0.567-0.604,1.104-0.768,1.896-0.745c6.271,0.144,11.39-5.063,11.123-11.317
		c-0.026-0.74,0.162-1.189,0.707-1.676c2.228-1.995,3.283-4.543,3.42-7.508h-1.18L48.604,26.202z"/>
	<path fill="#002A41" d="M17.222,44.766c2.008,2.521,4.404,3.721,7.422,3.971c0.02,0.369,0.039,0.729,0.065,1.207
		c-2.887-0.172-5.331-1.129-7.275-3.157c-0.685-0.716-1.328-1.031-2.365-1.015C9.023,45.876,3.961,40.736,4.158,34.7
		c0.029-0.925-0.242-1.492-0.867-2.093c-2.025-1.955-3.128-4.34-3.191-7.183c0.153-0.083,0.249-0.174,0.349-0.176
		c0.221-0.017,0.446,0.011,0.725,0.024c0.329,2.89,1.356,5.377,3.967,7.374c0,0,0.286,0.494,0.497,0.979
		C4.556,39.26,9.477,45.373,16.243,44.363C16.243,44.364,16.851,44.32,17.222,44.766z"/>
	<path fill="#002A41" d="M17.343,4.658c1.102-0.8,2.128-1.748,3.327-2.355c1.207-0.611,2.584-0.79,3.962-1.23
		c0-0.176,0-0.654,0-1.007c-0.22-0.021-0.368,0.012-0.515,0.02c-2.887,0.168-5.218,1.446-7.176,3.528
		c-0.278,0.296-0.723,0.532-1.121,0.6c-0.678,0.113-1.382,0.033-2.071,0.093c-5.356,0.46-9.884,5.581-9.563,10.915
		c0.054,0.881-0.188,1.399-0.793,1.981c-2.073,2.002-3.23,4.439-3.289,7.413c0.224,0.05,0.365,0.101,0.51,0.104
		c0.182,0.005,0.366-0.031,0.589-0.053c0.288-2.952,1.396-5.433,3.924-7.476c0.25-0.209,0.419-0.853,0.419-0.853
		c-0.365-3.276,0.463-5.868,2.494-8c2.173-2.272,4.82-3.325,8.179-2.912C16.219,5.425,16.683,5.29,17.343,4.658z"/>
	<path fill="#002A41" d="M25.466,1.14c0.132,0.048,0.421,0.075,0.7,0.117c2.585,0.385,4.688,1.635,6.542,3.805
		c0.381,0.428,0.894,0.46,0.894,0.46c3.515-0.414,6.301,0.551,8.479,2.933c1.952,2.14,2.724,4.733,2.331,7.603
		c0,0,0.178,0.915,0.469,1.162c2.487,2.031,3.646,4.496,3.858,7.448c0.391,0,0.69,0,1.141,0c-0.092-3.06-1.282-5.458-3.343-7.49
		c-0.354-0.347-0.68-0.834-0.768-1.304c-0.158-0.824-0.082-1.687-0.179-2.529c-0.597-5.161-5.575-9.448-10.786-9.168
		c-1.024,0.057-1.615-0.271-2.262-0.946c-1.919-2.015-4.289-3.054-7.067-3.167L25.466,1.14z"/>
	<path fill="#002A41" d="M16.055,40.021c-0.167,0.41-0.314,0.772-0.465,1.14c-0.54-0.147-1.085-0.3-1.918-0.534
		c0.291,0.803,0.515,1.41,0.731,2.007c-0.292,0.202-0.616,0.419-0.907,0.619c-0.273-0.187-0.588-0.399-0.936-0.636
		c0.114-0.467,0.24-1.012,0.369-1.555c-0.064-0.052-0.129-0.103-0.194-0.153c-0.451,0.356-0.899,0.715-1.309,1.038
		c-0.194-0.342-0.39-0.676-0.579-0.995c0.181-0.315,0.384-0.675,0.6-1.048c0.419,0.047,0.896,0.101,1.567,0.175
		c-0.211-0.583-0.36-0.995-0.569-1.573c0.569-0.07,1.108-0.138,1.786-0.221c-0.219,0.613-0.354,0.994-0.595,1.674
		c0.64-0.294,1.05-0.482,1.498-0.686C15.419,39.504,15.772,39.791,16.055,40.021z"/>
	<path fill="#002A41" d="M11.657,14.201c-0.721-0.262-1.079-0.393-1.718-0.622c0.306,0.625,0.515,1.044,0.731,1.489
		c-0.212,0.292-0.451,0.611-0.703,0.953c-0.368-0.152-0.764-0.317-1.153-0.477c0.138-0.543,0.275-1.086,0.472-1.869
		c-0.793,0.274-1.38,0.478-1.963,0.678c-0.234-0.312-0.47-0.629-0.657-0.877c0.201-0.309,0.418-0.64,0.632-0.963
		c0.548,0.131,1.135,0.273,2.065,0.5c-0.61-0.705-0.994-1.149-1.369-1.584c0.36-0.233,0.709-0.462,1.002-0.652
		c0.349,0.222,0.701,0.45,1.056,0.677c-0.064,0.432-0.128,0.875-0.225,1.531c0.574-0.199,0.982-0.341,1.608-0.553
		C11.501,12.957,11.568,13.476,11.657,14.201z"/>
	<path fill="#002A41" d="M37.341,11.459c-0.586,0.06-1.116,0.115-1.815,0.186c0.267-0.646,0.433-1.049,0.718-1.73
		c-0.696,0.314-1.155,0.525-1.581,0.717c-0.279-0.218-0.568-0.449-0.878-0.693c0.116-0.346,0.258-0.752,0.397-1.166
		c0.568,0.151,1.145,0.299,1.953,0.513c-0.293-0.798-0.506-1.386-0.721-1.972c0.295-0.22,0.6-0.448,0.895-0.669
		c0.244,0.18,0.564,0.413,0.91,0.663c-0.107,0.518-0.234,1.106-0.416,1.954c0.65-0.504,1.098-0.85,1.581-1.225
		c0.187,0.298,0.39,0.624,0.556,0.89c-0.181,0.368-0.351,0.717-0.543,1.121c-0.418-0.06-0.934-0.133-1.604-0.231
		C36.986,10.388,37.128,10.808,37.341,11.459z"/>
	<path fill="#002A41" d="M40.001,33.882c0.433,0.196,0.776,0.354,1.17,0.537c-0.137,0.479-0.297,1.054-0.53,1.892
		c0.815-0.306,1.433-0.535,2.008-0.752c0.197,0.284,0.422,0.602,0.65,0.934c-0.176,0.229-0.41,0.531-0.682,0.887
		c-0.485-0.113-1.061-0.247-1.637-0.383c-0.041,0.066-0.086,0.136-0.129,0.204c0.363,0.414,0.729,0.825,1.094,1.241
		c-0.01,0.111-0.019,0.226-0.03,0.342c-0.662,0-1.324,0-2.013,0c0.074-0.713,0.125-1.189,0.19-1.85
		c-0.532,0.207-0.905,0.354-1.515,0.588c-0.105-0.569-0.21-1.125-0.352-1.877c0.722,0.295,1.133,0.47,1.797,0.739
		c-0.271-0.614-0.453-1.032-0.672-1.528C39.54,34.574,39.777,34.223,40.001,33.882z"/>
	<path fill="#002A41" d="M32.438,41.514c0.377,0.176,0.68,0.312,1.021,0.471c-0.117,0.418-0.259,0.918-0.463,1.65
		c0.713-0.265,1.25-0.466,1.753-0.658c0.173,0.252,0.369,0.527,0.569,0.816c-0.153,0.2-0.36,0.466-0.599,0.773
		c-0.424-0.101-0.924-0.215-1.429-0.334c-0.034,0.06-0.074,0.119-0.111,0.179c0.319,0.36,0.637,0.725,0.954,1.086
		c-0.008,0.099-0.015,0.196-0.022,0.297c-0.578,0-1.157,0-1.758,0c0.062-0.621,0.105-1.038,0.166-1.612
		c-0.468,0.18-0.791,0.31-1.321,0.514c-0.093-0.497-0.185-0.984-0.308-1.641c0.629,0.26,0.989,0.407,1.57,0.647
		c-0.236-0.539-0.398-0.904-0.59-1.337C32.035,42.118,32.241,41.812,32.438,41.514z"/>
	<path fill="#002A41" d="M16.948,41.979c-0.334,0.151-0.601,0.273-0.907,0.414c0.105,0.373,0.23,0.818,0.413,1.473
		c-0.634-0.237-1.112-0.417-1.56-0.588c-0.154,0.223-0.328,0.47-0.504,0.726c0.136,0.181,0.319,0.416,0.53,0.688
		c0.376-0.09,0.822-0.19,1.27-0.297c0.031,0.051,0.065,0.104,0.101,0.157c-0.285,0.322-0.567,0.644-0.85,0.966
		c0.008,0.088,0.013,0.176,0.022,0.266c0.515,0,1.031,0,1.563,0c-0.056-0.555-0.097-0.924-0.148-1.436
		c0.415,0.159,0.705,0.272,1.177,0.457c0.081-0.443,0.163-0.877,0.271-1.459c-0.559,0.229-0.881,0.361-1.396,0.575
		c0.211-0.479,0.353-0.803,0.525-1.188C17.307,42.514,17.124,42.24,16.948,41.979z"/>
	<path fill="#002A41" d="M32.373,3.431c0.318,0.145,0.57,0.261,0.859,0.394c-0.1,0.354-0.217,0.776-0.391,1.396
		c0.6-0.226,1.055-0.396,1.479-0.557c0.146,0.21,0.312,0.444,0.481,0.687c-0.132,0.169-0.306,0.394-0.507,0.654
		c-0.354-0.084-0.777-0.182-1.203-0.283c-0.027,0.05-0.062,0.101-0.095,0.149c0.271,0.306,0.536,0.611,0.805,0.917
		c-0.007,0.082-0.011,0.166-0.021,0.25c-0.486,0-0.977,0-1.481,0c0.056-0.523,0.095-0.875,0.144-1.359
		c-0.396,0.151-0.67,0.258-1.115,0.432c-0.078-0.42-0.154-0.83-0.258-1.381c0.529,0.216,0.836,0.344,1.324,0.545
		c-0.201-0.454-0.336-0.762-0.498-1.127C32.035,3.94,32.208,3.681,32.373,3.431z"/>
	<path fill="#002A41" d="M16.706,3.834c-0.275,0.125-0.495,0.227-0.747,0.343c0.087,0.306,0.19,0.673,0.339,1.209
		c-0.522-0.194-0.916-0.342-1.283-0.482c-0.126,0.183-0.269,0.386-0.416,0.598c0.111,0.146,0.263,0.34,0.437,0.568
		c0.309-0.075,0.677-0.159,1.044-0.246c0.027,0.042,0.056,0.087,0.083,0.13c-0.232,0.265-0.465,0.53-0.698,0.794
		c0.006,0.071,0.011,0.145,0.018,0.217c0.424,0,0.848,0,1.287,0c-0.047-0.454-0.08-0.76-0.122-1.18
		c0.341,0.132,0.579,0.225,0.968,0.375c0.067-0.364,0.133-0.719,0.223-1.199c-0.46,0.188-0.725,0.298-1.149,0.473
		c0.174-0.393,0.291-0.662,0.432-0.979C17,4.277,16.851,4.051,16.706,3.834z"/>
	<path fill="#002A41" d="M6.602,15.105c-0.275,0.125-0.494,0.226-0.747,0.342c0.087,0.307,0.19,0.674,0.339,1.21
		c-0.521-0.196-0.915-0.343-1.284-0.482c-0.125,0.183-0.27,0.384-0.416,0.596c0.113,0.146,0.263,0.341,0.437,0.567
		c0.309-0.073,0.676-0.157,1.044-0.245c0.027,0.043,0.055,0.087,0.083,0.131c-0.234,0.264-0.465,0.529-0.699,0.794
		c0.005,0.071,0.011,0.145,0.018,0.217c0.424,0,0.848,0,1.287,0c-0.046-0.455-0.079-0.759-0.123-1.18
		c0.342,0.131,0.581,0.224,0.97,0.375c0.067-0.365,0.133-0.72,0.223-1.199c-0.46,0.188-0.725,0.298-1.149,0.474
		c0.173-0.394,0.292-0.663,0.432-0.979C6.896,15.546,6.746,15.322,6.602,15.105z"/>
	<path fill="#002A41" d="M6.118,31.391c-0.275,0.127-0.494,0.229-0.747,0.344c0.087,0.308,0.189,0.675,0.34,1.211
		c-0.523-0.195-0.916-0.344-1.284-0.482c-0.126,0.184-0.27,0.387-0.417,0.598c0.112,0.146,0.263,0.342,0.438,0.568
		c0.31-0.072,0.678-0.16,1.044-0.247c0.027,0.043,0.055,0.087,0.083,0.132c-0.233,0.266-0.466,0.528-0.699,0.795
		c0.006,0.071,0.012,0.146,0.019,0.217c0.423,0,0.847,0,1.286,0c-0.046-0.453-0.08-0.758-0.122-1.182
		c0.342,0.135,0.579,0.227,0.968,0.377C7.093,33.354,7.159,33,7.249,32.52c-0.46,0.188-0.725,0.299-1.149,0.475
		c0.173-0.395,0.291-0.662,0.432-0.979C6.413,31.834,6.262,31.607,6.118,31.391z"/>
	<path fill="#002A41" d="M44.575,31.391c-0.276,0.127-0.495,0.229-0.748,0.344c0.088,0.308,0.192,0.675,0.34,1.211
		c-0.521-0.195-0.916-0.344-1.283-0.482c-0.126,0.184-0.271,0.387-0.417,0.598c0.112,0.146,0.264,0.342,0.438,0.568
		c0.311-0.072,0.678-0.16,1.045-0.247c0.026,0.043,0.056,0.087,0.083,0.132c-0.232,0.266-0.467,0.528-0.698,0.795
		c0.005,0.071,0.013,0.146,0.021,0.217c0.422,0,0.847,0,1.283,0c-0.045-0.453-0.076-0.758-0.119-1.182
		c0.338,0.135,0.578,0.227,0.969,0.377c0.066-0.365,0.133-0.72,0.224-1.199c-0.462,0.188-0.728,0.299-1.149,0.474
		c0.174-0.394,0.291-0.662,0.434-0.978C44.87,31.834,44.721,31.607,44.575,31.391z"/>
	<path fill="#002A41" d="M44.482,14.721c-0.274,0.125-0.494,0.228-0.748,0.342c0.088,0.306,0.189,0.673,0.342,1.211
		c-0.521-0.196-0.916-0.344-1.285-0.483c-0.124,0.183-0.27,0.385-0.415,0.597c0.112,0.146,0.263,0.341,0.438,0.568
		c0.31-0.074,0.674-0.159,1.043-0.246c0.026,0.043,0.055,0.087,0.084,0.13c-0.235,0.265-0.467,0.53-0.699,0.795
		c0.006,0.071,0.01,0.144,0.02,0.216c0.422,0,0.846,0,1.284,0c-0.046-0.453-0.08-0.759-0.12-1.179
		c0.34,0.131,0.578,0.224,0.969,0.375c0.066-0.366,0.133-0.72,0.224-1.2c-0.46,0.188-0.726,0.299-1.15,0.473
		c0.177-0.393,0.291-0.662,0.435-0.978C44.777,15.163,44.627,14.937,44.482,14.721z"/>
	<path fill="#002A41" d="M40.738,13.612c0.218,0.836,0.343,1.312,0.447,1.725c-0.363,0.236-0.705,0.454-0.895,0.573
		c-0.093-0.101-0.396-0.419-0.723-0.764c0.107-0.204,0.312-0.596,0.621-1.187c-0.596,0.107-0.957,0.17-1.615,0.29
		c0.029-0.562,0.062-1.087,0.103-1.705c0.614,0.252,0.964,0.395,1.312,0.535c0.027,0.008,0.07-0.022,0.179-0.064
		c-0.03-0.238-0.054-0.497-0.104-0.749c-0.056-0.26-0.135-0.516-0.205-0.775c0.363-0.218,0.728-0.442,1.101-0.668
		c0.271,0.198,0.583,0.428,0.897,0.664c-0.295,0.428-0.612,0.886-1.121,1.612c0.757-0.187,1.201-0.301,1.858-0.467
		c0,0.646,0,1.224,0,1.95C41.943,14.243,41.488,14.006,40.738,13.612z"/>
	<path fill="#002A41" d="M15.469,8.724c0.256,0.278,0.484,0.529,0.75,0.82c-0.261,0.296-0.524,0.597-0.821,0.933
		c-0.408-0.196-0.832-0.399-1.428-0.687c0.107,0.548,0.178,0.91,0.304,1.547c-0.539,0-1.053,0-1.703,0
		c0.252-0.613,0.404-0.986,0.642-1.561c-0.67,0.111-1.176,0.192-1.712,0.285c-0.218-0.324-0.455-0.672-0.704-1.043
		c0.236-0.27,0.521-0.6,0.783-0.896c0.43,0.302,0.864,0.6,1.294,0.896c0.081-0.047,0.159-0.1,0.238-0.147
		c-0.134-0.408-0.267-0.81-0.476-1.43c0.627,0,1.188,0,1.886,0c-0.327,0.709-0.518,1.12-0.828,1.792
		C14.403,9.029,14.891,8.888,15.469,8.724z"/>
	<path fill="#002A41" d="M9.286,36.279c-0.235-0.78-0.382-1.278-0.55-1.831c0.269-0.224,0.572-0.47,0.91-0.743
		c0.274,0.309,0.527,0.586,0.8,0.896c-0.161,0.354-0.345,0.76-0.626,1.383c0.582-0.131,0.996-0.226,1.62-0.362
		c-0.043,0.599-0.082,1.149-0.131,1.836c-0.551-0.284-0.932-0.481-1.518-0.785c0.116,0.709,0.197,1.216,0.28,1.729
		c-0.325,0.23-0.667,0.477-1.034,0.738C8.809,38.951,8.51,38.71,8.162,38.42c0.258-0.382,0.574-0.842,0.888-1.304
		c-0.05-0.074-0.099-0.15-0.146-0.228c-0.443,0.135-0.888,0.264-1.471,0.438c0-0.616,0-1.21,0-1.938
		C8.147,35.73,8.579,35.939,9.286,36.279z"/>
	<path fill="#002A41" d="M34.613,39.463c0.453,0.225,0.854,0.422,1.447,0.723c-0.146-0.615-0.236-1.006-0.389-1.645
		c0.559,0,1.092,0,1.778,0c-0.282,0.664-0.452,1.064-0.705,1.654c0.672-0.137,1.182-0.237,1.696-0.34
		c0.216,0.334,0.445,0.689,0.687,1.068c-0.192,0.237-0.442,0.54-0.712,0.87c-0.375-0.26-0.805-0.56-1.533-1.062
		c0.172,0.728,0.264,1.136,0.359,1.552c-0.299,0.181-0.602,0.368-0.904,0.556c-0.243-0.189-0.502-0.392-0.779-0.605
		c0.182-0.387,0.392-0.832,0.707-1.5c-0.771,0.195-1.272,0.326-1.783,0.457c-0.252-0.271-0.502-0.537-0.793-0.85
		C33.964,40.079,34.277,39.779,34.613,39.463z"/>
	<g>
		<path fill="#002A41" d="M25.779,44.857C25.766,44.864,25.792,44.975,25.779,44.857L25.779,44.857z"/>
		<path fill="#002A41" d="M47.053,27.333c-0.812-0.301-1.482-0.545-2.177-0.802c0.034-0.051,0.171-0.247,0.521-0.749
			c-0.773-0.042-1.311-0.072-1.845-0.113c-0.319-0.024-0.631-0.076-0.95-0.114c0.117-0.376,0.131-0.972,0.371-1.086
			c0.586-0.28,1.271-0.339,1.918-0.482c0.094-0.198,0.274-0.423,0.229-0.573c-0.317-1.01,1.031-0.939,1.816-1.044
			c-2.453-1.671-3.752,0.754-5.047,1.703c0.106-0.694,0.19-1.418,0.592-1.847c1.041-1.109,1.096-1.051,0.026-2.004
			c-0.128-0.115-0.124-0.372-0.25-0.487c-0.295-0.275-0.635-0.696-0.95-0.691c-0.281,0.002-0.57,0.487-0.836,0.775
			c-0.137,0.148-0.209,0.372-0.365,0.491c-0.938,0.725-0.933,1.089,0.054,1.662c0.866,0.503,0.993,0.829,0.805,1.69
			c-1.138-0.554-2.321-1.127-3.51-1.7c-0.029,0.065-0.062,0.128-0.09,0.189c0.552,0.754,1.104,1.512,1.682,2.301
			c-2.028,0.019-4.141,0.443-5.804-1.124c0.307-0.541,0.535-1.062,0.872-1.513c0.737-0.999,1.764-0.77,2.122,0.453
			c1.035-0.621,0.316-1.1-0.094-1.472c0.521-0.372,1.006-0.724,1.496-1.076c-0.068-0.13-0.137-0.26-0.207-0.387
			c-0.588,0.14-1.172,0.279-1.756,0.414c0.215-1.047,0.126-1.166-0.749-1.224c0,0.468,0.136,1.297-0.022,1.355
			c-0.938,0.358-1.903,1.234-3.059,0.139c0.291-0.721,0.605-1.488,0.805-1.972c0.846-0.158,1.398-0.26,1.949-0.363
			c-0.014-0.091-0.031-0.18-0.05-0.272c-0.196-0.11-0.396-0.222-0.657-0.366c1.168-1.157,2.062-2.579,4.021-2.11
			c-0.451-0.243-0.902-0.491-1.434-0.777c0.53-0.287,1.004-0.539,1.764-0.948c-0.674-0.052-1-0.077-1.331-0.103
			c0-0.286,0-0.57,0-0.852c-0.063-0.028-0.127-0.056-0.19-0.079c-0.35,0.577-0.701,1.153-0.998,1.65
			c-0.311-0.548-0.591-1.042-0.869-1.536c-0.057,0.13-0.147,0.272-0.119,0.369c0.574,1.722-0.439,2.726-1.61,3.744
			c-0.199-0.276-0.354-0.488-0.509-0.701c-0.107-0.082-0.221-0.165-0.33-0.246c0.24,2.072-1.062,2.247-2.312,2.465
			c-0.77-0.973-0.621-1.983-0.134-2.911c0.093-0.172,0.921,0.045,1.528,0.09c-0.098-0.833-0.531-1.156-1.314-0.888
			c0.129-0.607,0.254-1.226,0.389-1.846c-0.123-0.045-0.245-0.094-0.366-0.142c-0.377,0.54-0.746,1.08-1.091,1.576
			c-0.42-0.893-0.617-0.945-1.402-0.255c1.163,0.519,1.284,1.69,0.266,2.568c-0.928,0.802-1.261,0.752-1.834-0.329
			c-0.875-1.637-0.603-3.386-0.597-4.461c0.404,0.307,1.095,0.834,1.909,1.458c0.062-1.557,0.211-2.874-1.614-3.425
			c1.228-0.407,1.777,0.034,2.297,0.679c1.302,1.608,1.433-0.822,2.339-0.744c0.073,0.007,0.268-0.695,0.297-1.08
			c0.008-0.119-0.328-0.272-0.517-0.404c-0.146-0.103-0.335-0.166-0.444-0.297c-0.848-1.003-0.832-0.957-1.752,0.03
			c-0.379,0.405-1.037,0.552-1.57,0.814c1.814-2.609,2.119-4.013,0.939-5.244c-0.256,0.657-0.512,1.312-0.76,1.949
			c-0.16-1.066-0.938-0.54-0.938-0.54c0,0.595,0.107,1.466,0.039,2.052c-0.047,0.397-0.269,0.776-0.41,1.162
			c-0.32-0.266-0.762-0.473-0.927-0.814c-0.213-0.431-0.286-0.972-0.269-1.464c0.028-0.907-0.208-1.324-1.21-0.768
			c-0.122-0.446-0.286-1.021-0.439-1.578c-1.362,2.37,0.664,3.508,1.61,4.936c-0.695-0.128-1.438-0.28-1.853-0.733
			c-1.015-1.108-0.712-0.809-1.93,0.053c-1.727,1.221-1.165,1.643,0.105,2.588c0.855,0.636,1.071,0.838,1.629-0.108
			c0.479-0.812,1.099-1.069,1.802-0.904c-0.607,1.19-1.207,2.364-1.805,3.539c0.075,0.042,0.148,0.084,0.222,0.124
			c0.759-0.568,1.519-1.135,2.288-1.712c0,1.985,0.435,4.069-1.09,5.792c-1.046-0.506-2.076-0.992-2.115-2.266
			c-0.007-0.258,0.611-0.534,0.967-0.824c-0.479-1.034-1.005-0.171-1.335,0.066c-0.513-0.543-0.952-1.003-1.387-1.463l-0.002-0.005
			c0,0.595,0.076,1.545,0.076,1.888c-0.458,0.492-0.896,0.533-1.264,0.933c0.713,0,1.326-0.182,1.633,0.048
			c0.35,0.256,0.547,0.871,0.587,1.351c0.049,0.526-0.15,1.075-0.28,1.82c-0.952-0.428-1.703-0.764-2.162-0.971
			c-0.176-0.854-0.293-1.412-0.473-2.271c-0.303,0.627-0.427,0.893-0.556,1.155c-0.303-0.337-0.599-0.684-0.915-1.012
			c-0.81-0.841-1.59-1.686-0.812-3.031c-0.106-0.021-0.209-0.044-0.31-0.065c-0.259,0.464-0.516,0.927-0.817,1.474
			c-0.291-0.559-0.542-1.039-0.942-1.812c-0.079,0.675-0.118,1.02-0.15,1.318c-0.303,0.031-0.582,0.059-1.19,0.122
			c0.909,0.503,1.485,0.824,2.132,1.184c-0.656,0.203-1.146,0.355-1.542,0.483c1.047,0.343,2.007,0.587,2.904,0.983
			c0.465,0.203,0.809,0.679,1.206,1.031c-0.286,0.146-0.572,0.291-1.028,0.521c0.658,0.305,1.328,0.431,1.691,0.834
			c0.402,0.452,0.524,1.153,0.904,2.088c-1.247,0-2.234,0-3.392,0c0.181-0.643,0.305-1.083,0.432-1.542
			c-1.117-0.208-1.096,0.536-0.989,1.135c-0.632-0.095-1.209-0.181-1.789-0.266c-0.042,0.125-0.083,0.249-0.126,0.372
			c0.549,0.333,1.098,0.673,1.608,0.983c-1.035,0.394-1.098,0.67-0.293,1.531c0.299-1.036,0.299-1.034,1.36-0.723
			c0.092,0.028,0.249-0.084,0.305-0.042c0.433,0.334,0.953,0.633,1.226,1.075c0.103,0.169-0.279,0.842-0.596,1.027
			c-1.465,0.882-3.076,0.733-4.852,0.566c0.567-0.705,1.025-1.274,1.41-1.748c-0.599,0-1.274-0.165-1.802,0.045
			c-0.531,0.213-0.919,0.792-1.37,1.209c-0.1-0.521-0.136-1.179,0.13-1.339c1.601-0.958,0.969-1.762,0.03-2.766
			c-0.714-0.765-1.082-0.844-1.655,0.062c-0.098,0.151-0.171,0.336-0.305,0.445c-0.943,0.744-0.893,0.845-0.001,1.665
			c0.408,0.374,0.571,1.017,0.843,1.538c-0.092,0.044-0.184,0.096-0.278,0.146c-2.419-1.858-3.432-2.067-4.769-0.963
			c0.698,0.273,1.379,0.539,2.051,0.8c-0.203,0.159-0.408,0.322-0.61,0.482c0.881,0.237,1.764,0.478,2.841,0.771
			C7.42,24.986,7.282,25.424,7,25.562c-0.468,0.226-1.04,0.226-1.547,0.391c-0.327,0.107-0.901,0.431-0.881,0.488
			c0.386,1.135-0.47,0.908-1.123,1.009c0.782,0.844,1.64,0.918,2.472,0.298c0.721-0.537,1.323-1.229,1.977-1.852
			c0.075,0.621,0.089,1.317-0.246,1.58c-1.096,0.854-1.841,1.556-0.012,2.379c0.092,0.041,0.056,0.328,0.152,0.416
			c0.267,0.246,0.577,0.619,0.869,0.619c0.291,0,0.613-0.365,0.865-0.619c0.225-0.221,0.338-0.554,0.563-0.771
			c0.641-0.61,0.599-1.077-0.187-1.53c-0.983-0.562-1.092-0.891-0.857-1.742c1.12,0.565,2.275,1.151,3.714,1.881
			c-0.688-1.053-1.171-1.791-1.72-2.636c2.124-0.083,4.098-0.346,5.903,1.304c-0.796,0.764-1.527,1.466-2.424,2.328
			c-0.346-0.703-0.556-1.135-0.773-1.578c-0.859,0.707-0.555,1.238,0.139,1.615c-0.512,0.358-1.021,0.719-1.526,1.071
			c0.069,0.142,0.143,0.276,0.213,0.413c0.644-0.2,1.285-0.398,1.919-0.598c-0.137,0.265-0.287,0.554-0.48,0.925
			c0.386,0.226,0.719,0.417,1.053,0.608c0-0.599-0.163-1.332,0.029-1.443c0.866-0.501,1.782-1.271,3.02-0.232
			c-0.274,0.688-0.587,1.479-0.807,2.031c-0.844,0.123-1.423,0.21-2,0.298c0.013,0.089,0.025,0.177,0.037,0.269
			c0.205,0.115,0.409,0.229,0.622,0.354c-0.985,1.441-2.104,2.411-3.888,1.936c0.446,0.352,0.896,0.697,1.355,1.056
			c-0.456,0.229-0.943,0.478-1.731,0.874c0.692,0.064,1.018,0.104,1.349,0.135c0,0.285,0,0.559,0,0.827
			c0.077,0.035,0.15,0.063,0.225,0.103c0.35-0.584,0.701-1.164,1.07-1.771c0.193,0.572,0.354,1.041,0.511,1.508
			c0.323-2.036,1.345-4.141,2.127-3.996c0.078,0.232,0.156,0.463,0.234,0.697c0.112,0.109,0.227,0.215,0.341,0.326
			c-0.031-2.006,1.142-2.395,2.516-2.498c0.688,1.011,0.566,2.006-0.023,2.891c-0.12,0.184-0.857-0.052-1.347-0.098
			c-0.14,0.938,0.461,1.091,1.192,0.9c-0.103,0.627-0.198,1.207-0.293,1.789c0.12,0.045,0.237,0.088,0.356,0.135
			c0.346-0.514,0.688-1.021,0.994-1.475c0.291,0.717,0.797,0.94,1.571,0.232c-1.19-0.463-1.362-1.688-0.418-2.578
			c0.797-0.76,1.25-0.699,1.778,0.287c0.778,1.459,0.678,3.008,0.485,4.697c-0.628-0.467-1.4-1.328-1.918-1.711
			c-0.382,1.321,0.24,2.82,1.498,3.547c-0.543,0.058-1.167,0.142-1.313-0.082c-0.934-1.432-1.713-1.321-2.823-0.112
			c-0.71,0.776-0.854,1.085,0.101,1.673c0.149,0.089,0.288,0.223,0.393,0.363c0.672,0.92,0.808,0.874,1.603,0.023
			c0.416-0.442,1.061-0.666,1.605-0.988c0.057,0.09,0.12,0.185,0.179,0.277c-1.082,1.461-2.44,2.86-1.274,4.947
			c0.708-0.568,0.045-2.062,1.669-1.929c0.295,0.026,0.207-1.107,0.356-1.688c0.083-0.316,0.284-0.607,0.432-0.908
			c0.26,0.236,0.679,0.438,0.751,0.724c0.145,0.579,0.061,1.206,0.145,1.806c0.006,0.049,0.011,0.08,0.013,0.104
			c1.102-0.418,0.999,1.365,1.263,1.894c0.707-0.879,0.881-1.819,0.383-2.627c-0.472-0.771-1.104-1.437-1.699-2.177
			c1.338-0.068,1.516,0,2.234,0.93c0.395,0.514,0.792,0.893,1.396,0.258c0.504-0.523,1.205-0.961,1.48-1.587
			c0.486-1.095-1.004-0.858-1.257-1.526c-0.026-0.072-0.063-0.143-0.112-0.197c-0.554-0.66-1.147-0.578-1.433,0.154
			c-0.396,1.027-1.089,1.096-1.788,1.004c0.564-1.189,1.126-2.363,1.797-3.771c-0.992,0.656-1.714,1.13-2.578,1.702
			c-0.079-2.107-0.319-4.061,1.063-5.662c1.135,0.426,2.075,0.977,2.188,2.167c0.024,0.257-0.656,0.58-1.045,0.896
			c0.563,0.933,1.077,0.244,1.467-0.186c0.377,0.498,0.73,0.971,1.086,1.439c0.131-0.071,0.265-0.141,0.396-0.211
			c-0.188-0.619-0.376-1.238-0.542-1.797c1.089,0.455,1.336,0.313,1.279-0.627c-0.43,0-0.934,0.152-1.248-0.028
			c-0.729-0.423-0.84-1.726-0.352-2.997c0.215,0.031,0.452,0.027,0.659,0.107c0.837,0.319,1.986,0.369,1.545,1.828
			c-0.057,0.188,0.302,0.51,0.507,0.827c0.143-0.317,0.229-0.512,0.373-0.835c1.122,1.219,2.731,2.01,2.121,4.098
			c0.27-0.488,0.534-0.979,0.827-1.516c0.282,0.534,0.552,1.035,0.813,1.541c0.07-0.029,0.146-0.059,0.218-0.084
			c0-0.348,0-0.689,0-1.008c0.325,0,0.586,0,0.848,0c0.025-0.074,0.052-0.146,0.075-0.225c-0.59-0.348-1.184-0.696-1.732-1.019
			c0.613-0.247,1.152-0.466,1.692-0.685c-0.121-0.086-0.258-0.219-0.341-0.19c-1.68,0.522-2.749-0.51-3.818-1.489
			c-0.041-0.281,0.145-0.357,0.145-0.357c0.244-0.154,0.527-0.336,0.879-0.559c-1.99,0.021-2.432-1.082-2.549-2.42
			c0.99-0.761,1.992-0.607,2.896-0.043c0.183,0.115-0.032,0.859-0.065,1.373c0.877,0.057,1.097-0.477,0.888-1.195
			c0.614,0.105,1.188,0.205,1.754,0.305c0.052-0.117,0.103-0.23,0.151-0.344c-0.549-0.375-1.094-0.746-1.584-1.076
			c0.812-0.188,1.033-0.645,0.578-1.254c-0.523,0.312-0.949,0.646-1.433,0.822c-0.211,0.078-0.597-0.093-0.795-0.269
			c-0.41-0.361-0.843-0.765-1.067-1.24c-0.078-0.173,0.346-0.735,0.657-0.909c1.485-0.817,3.085-0.75,4.845-0.521
			c-0.543,0.683-1,1.253-1.461,1.83c1.229-0.117,2.616,0.222,3.207-1.648c0.282,1.148,0.107,1.705-0.623,2.217
			c-1.712,1.201,0.658,1.45,0.646,2.312c0,0.128,0.684,0.274,1.049,0.396c0.05,0.014,0.146-0.062,0.191-0.121
			c0.457-0.56,0.912-1.127,1.322-1.631c-0.58-0.854-1.145-1.688-1.707-2.518c0.099-0.079,0.191-0.161,0.287-0.245
			C43.311,27.361,44.818,28.766,47.053,27.333z M33.958,21.053c-0.452,0.673-0.801,1.187-1.256,1.867
			c-0.275-0.701-0.489-1.24-0.772-1.957C32.753,20.999,33.271,21.022,33.958,21.053z M31.876,18.022
			c-0.199,0.618-0.369,1.172-0.62,1.949c-0.521-0.495-0.91-0.867-1.406-1.34C30.613,18.401,31.199,18.224,31.876,18.022z
			 M28.777,16.006c0.119,0.652,0.215,1.166,0.358,1.944c-0.715-0.243-1.268-0.433-1.963-0.669
			C27.777,16.8,28.238,16.434,28.777,16.006z M25.033,15.233c0.349,0.583,0.673,1.123,1.046,1.743c-0.714,0-1.324,0-2.023,0
			C24.431,16.304,24.727,15.779,25.033,15.233z M21.139,16.004c0.651,0.427,1.156,0.76,1.825,1.198
			c-0.692,0.315-1.252,0.568-2.004,0.911C21.026,17.308,21.079,16.702,21.139,16.004z M18.141,18.155
			c0.663,0.201,1.174,0.354,1.828,0.552c-0.482,0.508-0.848,0.902-1.348,1.438C18.429,19.354,18.306,18.833,18.141,18.155z
			 M16.048,21.234c0.664-0.148,1.216-0.271,1.967-0.441c-0.274,0.719-0.481,1.27-0.735,1.94
			C16.842,22.197,16.509,21.793,16.048,21.234z M15.249,24.921c0.623-0.381,1.143-0.698,1.824-1.118c0,0.768,0,1.365,0,2.122
			C16.422,25.566,15.9,25.282,15.249,24.921z M15.956,28.891c0.481-0.681,0.845-1.195,1.305-1.849
			c0.286,0.664,0.521,1.207,0.799,1.849C17.335,28.891,16.744,28.891,15.956,28.891z M18.064,31.941
			c0.237-0.668,0.439-1.241,0.788-2.229c0.44,0.702,0.757,1.082,1.421,1.501C19.343,31.521,18.766,31.711,18.064,31.941z
			 M21.262,33.918c-0.139-0.648-0.248-1.157-0.413-1.912c0.706,0.223,1.252,0.396,1.986,0.624
			C22.239,33.117,21.811,33.466,21.262,33.918z M25.007,34.838c-0.489-0.768-0.809-1.27-1.293-2.025c0.781,0,1.232,0.03,1.59-0.017
			l0.447,0.052C25.474,33.587,25.361,33.889,25.007,34.838z M28.889,33.934c-0.643-0.42-1.182-0.774-1.896-1.244
			c0.711-0.278,1.25-0.494,1.896-0.75C28.889,32.706,28.889,33.234,28.889,33.934z M26.585,32.051
			c-1.506,0.53-4.219-0.154-4.219-0.154c-1.044-0.209-1.771-0.922-2.599-1.592c-0.849-0.981-1.389-2.24-1.888-3.343
			c-0.312-0.688-0.256-2.522-0.256-2.522c-0.096-0.958,0.943-3.575,0.943-3.575c0.441-0.963,1.71-1.574,2.671-2.254
			c0.455-0.321,1.109-0.428,1.557-0.688c0,0,1.938-0.584,4.66,0.013c1.728,0.379,2.483,1.685,3.681,2.588
			c0.131,0.099,0.176,0.314,0.26,0.478c0,0,0.922,3.305,0.856,3.944c-0.144,1.385-0.185,2.486-0.699,3.603
			c-0.293,0.635-0.983,1.073-1.354,1.686C29.396,31.161,26.585,32.051,26.585,32.051z M30.012,31.212
			c0.434-0.466,0.809-0.873,1.297-1.403c0.228,0.807,0.396,1.422,0.578,2.073C31.258,31.659,30.73,31.471,30.012,31.212z
			 M33.958,28.76c-0.744,0.118-1.256,0.201-1.968,0.318c0.236-0.689,0.423-1.235,0.664-1.938
			C33.122,27.725,33.477,28.16,33.958,28.76z M32.9,26.164l-0.172-2.036c0.678,0.27,1.354,0.538,2.114,0.842
			C34.15,25.395,33.609,25.729,32.9,26.164z"/>
		<path fill="#002A41" d="M37.721,34.939c-0.005,0.002-0.007,0.004-0.013,0.006c0.015,0.01,0.028,0.021,0.044,0.029L37.721,34.939z"
			/>
		<path fill="#002A41" d="M11.944,34.74c0.045,0.013,0.088,0.021,0.132,0.031c-0.031-0.022-0.062-0.047-0.092-0.069L11.944,34.74z"
			/>
		<path fill="#002A41" d="M44.91,23.983c-0.008,0.002-0.012,0.003-0.02,0.004c-0.008,0.011-0.014,0.023-0.019,0.034L44.91,23.983z"
			/>
		<path fill="#002A41" d="M34.848,12.277c0.004,0.005,0.006,0.011,0.008,0.014c0.006-0.014,0.018-0.03,0.021-0.046L34.848,12.277z"
			/>
		<path fill="#002A41" d="M4.735,23.97c0.007-0.007,0.014-0.013,0.022-0.018c-0.016-0.004-0.033-0.01-0.049-0.014L4.735,23.97z"/>
	</g>
	<path fill="#002A41" d="M11.817,16.979c-0.217-0.704-0.356-1.163-0.556-1.809c0.411,0.083,0.924,0.061,0.999,0.231
		c0.146,0.327,0.042,0.764,0.042,1.141c0.566-0.085,1.229-0.186,1.89-0.284c0.035,0.113,0.068,0.226,0.102,0.337
		c-0.184,0.265-0.365,0.526-0.592,0.851c-0.278-0.049-0.635-0.107-0.989-0.164c-0.043,0.062-0.087,0.131-0.132,0.198
		c0.297,0.224,0.598,0.445,1.061,0.792c-0.513,0.277-0.973,0.529-1.578,0.857c-0.07-0.605-0.115-0.972-0.185-1.528
		c-0.434,0.227-0.778,0.403-1.206,0.625c-0.201-0.157-0.479-0.378-0.754-0.597c0.181-0.263,0.391-0.575,0.574-0.844
		C10.844,16.835,11.206,16.889,11.817,16.979z"/>
	<path fill="#002A41" d="M17.615,11.925c-0.216-0.703-0.355-1.164-0.556-1.809c0.41,0.083,0.923,0.06,0.999,0.231
		c0.145,0.326,0.043,0.764,0.043,1.14c0.564-0.084,1.227-0.185,1.889-0.284c0.035,0.114,0.068,0.226,0.102,0.337
		c-0.184,0.265-0.365,0.527-0.591,0.851c-0.279-0.049-0.635-0.106-0.989-0.164c-0.043,0.063-0.087,0.132-0.134,0.197
		c0.299,0.224,0.6,0.446,1.062,0.793c-0.512,0.277-0.971,0.529-1.577,0.856c-0.07-0.606-0.115-0.973-0.185-1.528
		c-0.434,0.227-0.777,0.403-1.207,0.625c-0.201-0.157-0.479-0.378-0.752-0.598c0.179-0.263,0.389-0.574,0.571-0.844
		C16.644,11.781,17.005,11.835,17.615,11.925z"/>
	<path fill="#002A41" d="M32.229,11.925c-0.215-0.703-0.354-1.164-0.558-1.809c0.413,0.083,0.927,0.06,1.001,0.231
		c0.145,0.326,0.042,0.764,0.042,1.14c0.565-0.084,1.228-0.185,1.89-0.284c0.035,0.114,0.068,0.226,0.104,0.337
		c-0.187,0.265-0.364,0.527-0.592,0.851c-0.278-0.049-0.636-0.106-0.989-0.164c-0.042,0.063-0.088,0.132-0.133,0.197
		c0.298,0.224,0.599,0.446,1.062,0.793c-0.515,0.277-0.973,0.529-1.578,0.856c-0.07-0.606-0.115-0.973-0.185-1.528
		c-0.437,0.227-0.776,0.403-1.208,0.625c-0.197-0.157-0.479-0.378-0.752-0.598c0.182-0.263,0.391-0.574,0.573-0.844
		C31.256,11.781,31.618,11.835,32.229,11.925z"/>
	<path fill="#002A41" d="M32.229,38.117c-0.215-0.706-0.354-1.163-0.558-1.811c0.413,0.082,0.927,0.062,1.001,0.229
		c0.145,0.327,0.042,0.765,0.042,1.144c0.565-0.088,1.228-0.188,1.89-0.285c0.035,0.112,0.068,0.225,0.104,0.338
		c-0.187,0.266-0.364,0.525-0.592,0.85c-0.278-0.046-0.636-0.104-0.989-0.163c-0.042,0.063-0.088,0.132-0.133,0.198
		c0.298,0.225,0.599,0.445,1.062,0.792c-0.515,0.278-0.973,0.528-1.578,0.856c-0.07-0.604-0.115-0.973-0.185-1.529
		c-0.437,0.228-0.776,0.406-1.208,0.627c-0.197-0.156-0.479-0.379-0.752-0.598c0.182-0.266,0.391-0.574,0.573-0.846
		C31.256,37.973,31.618,38.025,32.229,38.117z"/>
	<path fill="#002A41" d="M16.737,38.117c-0.216-0.706-0.354-1.163-0.555-1.811c0.41,0.082,0.924,0.062,0.999,0.229
		c0.144,0.327,0.042,0.765,0.042,1.144c0.566-0.088,1.228-0.188,1.89-0.285c0.034,0.112,0.067,0.225,0.103,0.338
		c-0.184,0.266-0.366,0.525-0.592,0.85c-0.278-0.046-0.634-0.104-0.989-0.163c-0.044,0.063-0.088,0.132-0.134,0.198
		c0.298,0.225,0.599,0.445,1.062,0.792c-0.512,0.278-0.973,0.528-1.578,0.856c-0.071-0.604-0.116-0.973-0.186-1.529
		c-0.434,0.228-0.777,0.406-1.206,0.627c-0.2-0.156-0.479-0.379-0.752-0.598c0.18-0.266,0.39-0.574,0.571-0.846
		C15.765,37.973,16.128,38.025,16.737,38.117z"/>
	<path fill="#002A41" d="M38.177,16.731c-0.187-0.338-0.343-0.627-0.571-1.038c0.457-0.14,0.903-0.271,1.418-0.428
		c-0.166,0.633-0.303,1.16-0.397,1.523c0.633,0.275,1.124,0.488,1.622,0.704c-0.516,1.049-1.08,0.817-1.754,0.158
		c-0.055,0.567-0.085,0.92-0.137,1.486c-0.527-0.208-0.996-0.392-1.599-0.631c0.456-0.36,0.732-0.583,1.017-0.801
		c-0.049-0.068-0.094-0.135-0.142-0.202c-0.323,0.051-0.646,0.101-0.978,0.153c-0.176-0.266-0.361-0.537-0.764-1.135
		C36.762,16.602,37.378,16.658,38.177,16.731z"/>
	<path fill="#002A41" d="M11.985,34.702c-0.31-0.068-0.616-0.14-0.942-0.211c0.136-0.507,0.271-1.003,0.364-1.351
		c-0.613-0.244-1.104-0.445-1.713-0.693c0.389-0.377,0.618-0.594,0.861-0.832c0.251,0.148,0.542,0.322,0.933,0.556
		c0.026-0.46,0.044-0.819,0.073-1.374c0.569,0.21,1.092,0.4,1.764,0.646c-0.469,0.354-0.774,0.588-1.357,1.021
		c0.696-0.068,1.052-0.105,1.457-0.148c0.158,0.221,0.364,0.504,0.77,1.066c-0.823,0-1.462,0-2.134,0
		c-0.021,0.266-0.067,0.809-0.114,1.356L11.985,34.702z"/>
	<path fill="#002A41" d="M38.131,34.702c-0.311-0.068-0.613-0.14-0.939-0.211c0.137-0.507,0.271-1.003,0.361-1.351
		c-0.613-0.244-1.104-0.445-1.715-0.693c0.393-0.377,0.62-0.594,0.863-0.832c0.252,0.148,0.543,0.322,0.933,0.556
		c0.026-0.46,0.044-0.819,0.072-1.374c0.569,0.21,1.093,0.4,1.765,0.646c-0.471,0.354-0.772,0.588-1.354,1.021
		c0.694-0.068,1.052-0.105,1.454-0.148c0.158,0.221,0.363,0.504,0.771,1.066c-0.822,0-1.462,0-2.133,0
		c-0.021,0.266-0.066,0.809-0.115,1.356L38.131,34.702z"/>
	<path fill="#002A41" d="M46.634,34.979c-0.153-0.457-0.286-0.84-0.423-1.231c0.409-0.188,0.777-0.356,1.146-0.522
		c0.105,0.358,0.221,0.737,0.33,1.104C47.379,34.514,47.037,34.727,46.634,34.979z"/>
	<path fill="#002A41" d="M46.634,16.789c-0.153-0.457-0.286-0.839-0.423-1.232c0.409-0.188,0.777-0.357,1.146-0.525
		c0.105,0.362,0.221,0.742,0.33,1.106C47.379,16.326,47.037,16.54,46.634,16.789z"/>
	<path fill="#002A41" d="M45.805,25.521c-0.156-0.456-0.289-0.838-0.423-1.231c0.407-0.188,0.776-0.357,1.146-0.525
		c0.111,0.361,0.223,0.741,0.332,1.107C46.55,25.059,46.209,25.273,45.805,25.521z"/>
	<path fill="#002A41" d="M4.179,25.521c-0.154-0.456-0.288-0.838-0.422-1.231c0.408-0.188,0.778-0.357,1.145-0.525
		c0.109,0.361,0.222,0.741,0.333,1.107C4.924,25.059,4.583,25.273,4.179,25.521z"/>
	<path fill="#002A41" d="M33.65,3.785c-0.156-0.456-0.291-0.839-0.424-1.232c0.407-0.188,0.775-0.358,1.145-0.525
		c0.109,0.361,0.223,0.742,0.333,1.106C34.395,3.321,34.055,3.536,33.65,3.785z"/>
	<path fill="#002A41" d="M33.65,48.051c-0.156-0.455-0.291-0.839-0.424-1.23c0.407-0.188,0.775-0.356,1.145-0.523
		c0.109,0.361,0.223,0.74,0.333,1.104C34.395,47.587,34.055,47.802,33.65,48.051z"/>
	<path fill="#002A41" d="M16.035,48.051c0.155-0.455,0.289-0.839,0.423-1.23c-0.409-0.188-0.778-0.356-1.146-0.523
		c-0.109,0.361-0.222,0.74-0.332,1.104C15.291,47.587,15.63,47.802,16.035,48.051z"/>
	<path fill="#002A41" d="M3.413,34.979c0.154-0.457,0.29-0.84,0.424-1.231c-0.408-0.188-0.779-0.356-1.146-0.522
		c-0.108,0.358-0.22,0.737-0.331,1.104C2.669,34.514,3.009,34.727,3.413,34.979z"/>
	<path fill="#002A41" d="M3.413,16.789c0.154-0.457,0.29-0.839,0.424-1.232c-0.408-0.188-0.779-0.357-1.146-0.525
		c-0.108,0.362-0.22,0.742-0.331,1.106C2.669,16.326,3.009,16.54,3.413,16.789z"/>
	<path fill="#002A41" d="M16.035,3.785c0.155-0.456,0.289-0.839,0.423-1.232c-0.409-0.188-0.778-0.358-1.146-0.525
		C15.203,2.389,15.09,2.77,14.98,3.134C15.291,3.321,15.63,3.536,16.035,3.785z"/>
	<g>
		<path fill="#002A41" d="M26.525,26.064c-0.295-0.385-0.584-0.758-0.896-1.163c0.314-0.347,0.633-0.697,0.949-1.051
			c0.488,0.192,0.979,0.38,1.675,0.65c-0.173-0.603-0.301-1.041-0.491-1.701c0.59,0,1.141,0,1.828,0
			c-0.248,0.639-0.416,1.066-0.58,1.494c0.062,0.062,0.122,0.127,0.184,0.191c0.464-0.257,0.928-0.519,1.377-0.776
			c0.218,0.371,0.464,0.789,0.74,1.267c-0.181,0.257-0.457,0.641-0.814,1.146c-0.318-0.179-0.791-0.447-1.531-0.862
			c0.199,0.653,0.334,1.079,0.526,1.7c-0.568,0.084-1.144,0.167-1.862,0.269c0.264-0.718,0.424-1.148,0.678-1.841
			C27.564,25.669,27.091,25.848,26.525,26.064z"/>
		<path fill="#002A41" d="M25.024,31.376c-0.345-0.204-0.72-0.429-1.211-0.726c0.181-0.322,0.452-0.811,0.89-1.588
			c-0.734,0.252-1.167,0.397-1.871,0.639c-0.026-0.645-0.053-1.204-0.083-1.846c0.656,0.232,1.107,0.396,1.886,0.672
			c-0.336-0.769-0.55-1.254-0.75-1.715c0.374-0.304,0.749-0.598,1.135-0.908c0.374,0.301,0.755,0.604,1.152,0.92
			c-0.203,0.439-0.416,0.904-0.753,1.645c0.746-0.223,1.218-0.367,1.896-0.572c-0.047,0.602-0.09,1.158-0.142,1.82
			c-0.649-0.242-1.065-0.4-1.781-0.665c0.379,0.722,0.641,1.214,0.89,1.689C25.855,30.955,25.435,31.168,25.024,31.376z"/>
		<path fill="#002A41" d="M20.7,25.302c-0.465,0.294-0.93,0.584-1.369,0.862c-0.184-0.413-0.375-0.836-0.601-1.342
			c0.142-0.263,0.369-0.68,0.634-1.167c0.372,0.219,0.864,0.512,1.355,0.804c0.064-0.049,0.131-0.099,0.195-0.148
			c-0.178-0.428-0.358-0.854-0.597-1.429c0.586-0.078,1.165-0.155,1.948-0.261c-0.3,0.731-0.469,1.133-0.753,1.819
			c0.746-0.256,1.246-0.43,1.806-0.622c0.259,0.312,0.562,0.672,0.897,1.074c-0.305,0.373-0.603,0.735-0.899,1.092
			c-0.511-0.203-1.003-0.4-1.75-0.702c0.222,0.631,0.37,1.059,0.607,1.729c-0.633,0-1.193,0-1.884,0
			c0.255-0.635,0.43-1.067,0.603-1.501C20.828,25.441,20.763,25.371,20.7,25.302z"/>
		<path fill="#002A41" d="M27.371,21.803c-0.746-0.215-1.213-0.35-1.866-0.537c0.274,0.72,0.456,1.198,0.627,1.645
			c-0.411,0.318-0.753,0.589-1.121,0.875c-0.392-0.325-0.759-0.623-1.079-0.891c0.213-0.536,0.394-0.996,0.687-1.723
			c-0.747,0.272-1.189,0.437-1.927,0.71c0.09-0.739,0.159-1.288,0.229-1.851c0.6,0.196,1.038,0.339,1.474,0.484
			c0.054-0.074,0.106-0.149,0.162-0.22c-0.278-0.449-0.558-0.898-0.725-1.161l1.227-0.892c0.402,0.277,0.804,0.553,1.212,0.833
			c-0.205,0.366-0.461,0.821-0.721,1.279c0.069,0.057,0.135,0.114,0.202,0.174c0.412-0.156,0.819-0.316,1.356-0.522
			C27.197,20.589,27.277,21.142,27.371,21.803"/>
	</g>
</g>
</svg>
