<?xml version="1.0" encoding="utf-8"?>
<!-- Generator: Adobe Illustrator 16.0.0, SVG Export Plug-In . SVG Version: 6.00 Build 0)  -->
<!DOCTYPE svg PUBLIC "-//W3C//DTD SVG 1.1//EN" "http://www.w3.org/Graphics/SVG/1.1/DTD/svg11.dtd">
<svg version="1.1" id="Layer_1" xmlns="http://www.w3.org/2000/svg" xmlns:xlink="http://www.w3.org/1999/xlink" x="0px" y="0px"
	 width="312px" height="73px" viewBox="0 0 390 91" enable-background="new 0 0 390 91" xml:space="preserve">
<g>
	<path fill-rule="evenodd" clip-rule="evenodd" fill="#002B41" d="M88.164,47.691c-0.626,4.693-2.833,8.564-6.919,11.855
		c-0.57,0.477-0.878,1.793-0.878,1.793c2.124,11.736-9.034,21.777-19.991,19.125c0,0-1.041,1.094-1.24,1.33
		c-3.362,4.027-7.187,6.324-11.971,6.814l-1.279,0.234l0.104,2.137c5.291-0.35,9.717-2.436,13.267-6.203
		c1.032-1.1,2.015-1.396,3.458-1.359c11.436,0.26,20.772-9.24,20.29-20.645c-0.053-1.354,0.298-2.172,1.288-3.055
		c4.061-3.641,5.99-8.287,6.24-13.701h-2.154L88.164,47.691z"/>
	<path fill-rule="evenodd" clip-rule="evenodd" fill="#002B41" d="M30.922,81.555c3.663,4.6,8.034,6.789,13.538,7.244
		c0.037,0.674,0.072,1.328,0.121,2.201c-5.268-0.312-9.726-2.059-13.272-5.762c-1.25-1.303-2.422-1.879-4.315-1.846
		C15.965,83.578,6.731,74.207,7.089,63.193c0.054-1.686-0.442-2.721-1.581-3.812c-3.695-3.57-5.706-7.92-5.822-13.103
		c0.278-0.152,0.455-0.32,0.636-0.324c0.404-0.03,0.815,0.021,1.323,0.047c0.599,5.271,2.474,9.81,7.237,13.45
		c0,0,0.522,0.9,0.906,1.787c-1.973,10.277,7.003,21.426,19.346,19.584C29.134,80.822,30.244,80.74,30.922,81.555z"/>
	<path fill-rule="evenodd" clip-rule="evenodd" fill="#002B41" d="M31.141,8.393c2.013-1.459,3.883-3.188,6.069-4.296
		c2.202-1.113,4.714-1.44,7.228-2.246c0-0.322,0-1.193,0-1.838c-0.4-0.039-0.671,0.021-0.939,0.037
		c-5.265,0.307-9.518,2.638-13.09,6.436c-0.507,0.539-1.318,0.971-2.044,1.094c-1.237,0.206-2.521,0.06-3.778,0.169
		C14.815,8.591,6.557,17.933,7.142,27.662c0.098,1.606-0.343,2.552-1.447,3.614c-3.782,3.652-5.892,8.098-6,13.521
		c0.41,0.092,0.667,0.185,0.93,0.189c0.333,0.01,0.668-0.056,1.074-0.096c0.526-5.385,2.546-9.911,7.159-13.637
		c0.458-0.382,0.766-1.556,0.766-1.556c-0.666-5.976,0.845-10.704,4.548-14.594c3.965-4.146,8.794-6.066,14.92-5.312
		C29.092,9.792,29.937,9.543,31.141,8.393z"/>
	<path fill-rule="evenodd" clip-rule="evenodd" fill="#002B41" d="M45.962,1.975c0.239,0.087,0.765,0.138,1.273,0.214
		c4.718,0.702,8.55,2.981,11.936,6.941c0.691,0.779,1.627,0.838,1.627,0.838c6.411-0.755,11.493,1.006,15.467,5.35
		c3.562,3.904,4.966,8.635,4.253,13.869c0,0,0.323,1.669,0.855,2.119c4.534,3.706,6.645,8.202,7.041,13.587c0.708,0,1.256,0,2.078,0
		c-0.169-5.581-2.345-9.956-6.1-13.662c-0.641-0.633-1.233-1.522-1.396-2.38c-0.292-1.502-0.148-3.077-0.326-4.613
		C81.583,14.824,72.499,7.004,62.995,7.514c-1.871,0.104-2.949-0.498-4.126-1.725c-3.499-3.675-7.824-5.571-12.889-5.776
		L45.962,1.975z"/>
	<path fill-rule="evenodd" clip-rule="evenodd" fill="#002B41" d="M28.792,72.9c-0.304,0.752-0.572,1.414-0.847,2.08
		c-0.984-0.271-1.979-0.549-3.5-0.975c0.531,1.465,0.94,2.572,1.334,3.662c-0.534,0.365-1.126,0.764-1.656,1.129
		c-0.498-0.342-1.072-0.73-1.707-1.16c0.208-0.854,0.438-1.842,0.672-2.836c-0.117-0.092-0.234-0.186-0.354-0.281
		c-0.822,0.65-1.641,1.303-2.387,1.895c-0.355-0.619-0.712-1.232-1.057-1.816c0.332-0.574,0.702-1.227,1.094-1.91
		c0.765,0.086,1.638,0.182,2.859,0.318c-0.386-1.062-0.657-1.812-1.038-2.867c1.038-0.129,2.021-0.252,3.257-0.402
		c-0.398,1.119-0.644,1.812-1.086,3.051c1.168-0.537,1.917-0.879,2.733-1.25C27.632,71.955,28.276,72.48,28.792,72.9z"/>
	<path fill-rule="evenodd" clip-rule="evenodd" fill="#002B41" d="M20.77,25.799c-1.314-0.478-1.968-0.716-3.134-1.134
		c0.558,1.139,0.939,1.904,1.334,2.716c-0.388,0.532-0.822,1.116-1.281,1.739c-0.67-0.277-1.394-0.578-2.104-0.87
		c0.252-0.99,0.503-1.979,0.861-3.407c-1.447,0.5-2.519,0.871-3.581,1.236c-0.428-0.571-0.858-1.147-1.198-1.602
		c0.365-0.563,0.762-1.167,1.153-1.756c0.999,0.238,2.07,0.497,3.767,0.912c-1.112-1.285-1.813-2.095-2.498-2.89
		c0.657-0.425,1.292-0.843,1.829-1.189c0.636,0.405,1.28,0.82,1.925,1.235c-0.117,0.787-0.232,1.598-0.41,2.792
		c1.047-0.363,1.791-0.621,2.934-1.007C20.485,23.53,20.607,24.477,20.77,25.799z"/>
	<path fill-rule="evenodd" clip-rule="evenodd" fill="#002B41" d="M67.621,20.799c-1.069,0.11-2.037,0.21-3.312,0.338
		c0.485-1.179,0.785-1.914,1.305-3.156c-1.266,0.572-2.105,0.958-2.885,1.306c-0.506-0.397-1.035-0.817-1.599-1.263
		c0.213-0.633,0.471-1.372,0.726-2.129c1.039,0.276,2.088,0.547,3.568,0.936c-0.536-1.456-0.925-2.527-1.317-3.597
		c0.538-0.401,1.092-0.816,1.629-1.221c0.447,0.329,1.033,0.753,1.662,1.209c-0.198,0.944-0.431,2.019-0.758,3.564
		c1.188-0.919,2.004-1.55,2.882-2.234c0.342,0.544,0.712,1.138,1.013,1.623c-0.325,0.672-0.636,1.308-0.989,2.045
		c-0.762-0.108-1.703-0.242-2.922-0.422C66.974,18.844,67.231,19.609,67.621,20.799z"/>
	<path fill-rule="evenodd" clip-rule="evenodd" fill="#002B41" d="M72.475,61.701c0.786,0.359,1.414,0.65,2.132,0.979
		c-0.248,0.873-0.541,1.922-0.967,3.453c1.489-0.559,2.61-0.979,3.662-1.377c0.36,0.521,0.771,1.098,1.188,1.701
		c-0.32,0.422-0.75,0.975-1.245,1.621c-0.883-0.209-1.932-0.451-2.981-0.697c-0.076,0.121-0.157,0.246-0.237,0.369
		c0.667,0.756,1.329,1.512,1.995,2.27c-0.018,0.203-0.032,0.408-0.054,0.617c-1.207,0-2.417,0-3.671,0
		c0.133-1.295,0.226-2.166,0.35-3.367c-0.976,0.375-1.655,0.641-2.766,1.07c-0.191-1.041-0.381-2.053-0.638-3.424
		c1.315,0.539,2.07,0.854,3.281,1.352c-0.495-1.123-0.83-1.889-1.229-2.791C71.634,62.965,72.066,62.322,72.475,61.701z"/>
	<path fill-rule="evenodd" clip-rule="evenodd" fill="#002B41" d="M58.677,75.625c0.686,0.316,1.233,0.566,1.86,0.857
		c-0.215,0.762-0.471,1.676-0.844,3.014c1.3-0.488,2.28-0.855,3.199-1.203c0.315,0.457,0.673,0.959,1.038,1.488
		c-0.28,0.363-0.656,0.85-1.09,1.414c-0.771-0.182-1.686-0.395-2.603-0.611c-0.067,0.107-0.136,0.217-0.207,0.324
		c0.583,0.66,1.16,1.324,1.742,1.982c-0.014,0.178-0.028,0.357-0.045,0.541c-1.054,0-2.112,0-3.208,0
		c0.116-1.133,0.198-1.895,0.306-2.943c-0.852,0.328-1.445,0.562-2.413,0.936c-0.167-0.91-0.333-1.795-0.558-2.99
		c1.147,0.471,1.808,0.742,2.865,1.18c-0.433-0.98-0.725-1.648-1.077-2.438C57.944,76.727,58.32,76.168,58.677,75.625z"/>
	<path fill-rule="evenodd" clip-rule="evenodd" fill="#002B41" d="M30.422,76.469c-0.609,0.277-1.096,0.502-1.656,0.758
		c0.193,0.68,0.421,1.494,0.753,2.682c-1.156-0.432-2.027-0.762-2.844-1.068c-0.283,0.404-0.599,0.854-0.921,1.322
		c0.248,0.326,0.581,0.756,0.966,1.258c0.686-0.162,1.5-0.348,2.315-0.543c0.058,0.096,0.121,0.195,0.184,0.287
		c-0.52,0.59-1.035,1.178-1.551,1.766c0.016,0.156,0.024,0.316,0.042,0.479c0.938,0,1.879,0,2.852,0
		c-0.103-1.008-0.177-1.682-0.271-2.617c0.755,0.291,1.285,0.5,2.146,0.834c0.147-0.811,0.297-1.598,0.495-2.658
		c-1.021,0.416-1.607,0.658-2.547,1.049c0.386-0.875,0.644-1.467,0.957-2.168C31.076,77.447,30.742,76.949,30.422,76.469z"/>
	<path fill-rule="evenodd" clip-rule="evenodd" fill="#002B41" d="M58.56,6.153c0.58,0.265,1.041,0.478,1.569,0.721
		c-0.181,0.644-0.397,1.415-0.711,2.544c1.095-0.412,1.922-0.722,2.697-1.015c0.267,0.383,0.567,0.809,0.876,1.253
		c-0.238,0.308-0.554,0.718-0.92,1.193c-0.649-0.154-1.42-0.332-2.195-0.516c-0.054,0.092-0.113,0.184-0.172,0.274
		c0.49,0.557,0.977,1.114,1.469,1.671c-0.013,0.149-0.022,0.302-0.041,0.456c-0.889,0-1.78,0-2.703,0
		c0.098-0.955,0.167-1.597,0.259-2.48c-0.719,0.275-1.221,0.471-2.037,0.787c-0.142-0.766-0.28-1.513-0.471-2.52
		c0.97,0.395,1.526,0.627,2.417,0.995c-0.364-0.828-0.612-1.391-0.906-2.056C57.942,7.082,58.258,6.609,58.56,6.153z"/>
	<path fill-rule="evenodd" clip-rule="evenodd" fill="#002B41" d="M29.981,6.888c-0.503,0.229-0.903,0.414-1.363,0.626
		c0.158,0.559,0.345,1.228,0.618,2.206c-0.951-0.355-1.669-0.625-2.339-0.879c-0.232,0.334-0.493,0.703-0.76,1.089
		c0.205,0.266,0.48,0.621,0.796,1.037c0.564-0.136,1.235-0.289,1.905-0.449c0.05,0.078,0.101,0.16,0.15,0.236
		c-0.423,0.483-0.847,0.967-1.273,1.45c0.012,0.13,0.02,0.264,0.034,0.396c0.772,0,1.545,0,2.346,0
		c-0.085-0.828-0.145-1.386-0.222-2.152c0.622,0.239,1.056,0.41,1.766,0.683c0.123-0.666,0.244-1.312,0.407-2.187
		c-0.841,0.344-1.323,0.544-2.096,0.863c0.317-0.718,0.531-1.207,0.788-1.785C30.517,7.696,30.243,7.285,29.981,6.888z"/>
	<path fill-rule="evenodd" clip-rule="evenodd" fill="#002B41" d="M11.548,27.448c-0.502,0.229-0.901,0.413-1.363,0.625
		c0.16,0.559,0.348,1.229,0.621,2.207c-0.952-0.357-1.67-0.627-2.342-0.879c-0.23,0.334-0.491,0.701-0.758,1.087
		c0.206,0.268,0.479,0.623,0.796,1.036c0.565-0.134,1.235-0.287,1.906-0.446c0.048,0.077,0.099,0.159,0.151,0.237
		c-0.426,0.483-0.849,0.966-1.275,1.449c0.011,0.131,0.021,0.265,0.033,0.396c0.772,0,1.546,0,2.346,0
		c-0.084-0.829-0.144-1.385-0.223-2.151c0.623,0.238,1.059,0.409,1.768,0.683c0.123-0.666,0.243-1.314,0.406-2.187
		c-0.839,0.344-1.322,0.543-2.097,0.864c0.317-0.718,0.532-1.208,0.789-1.786C12.086,28.253,11.81,27.845,11.548,27.448z"/>
	<path fill-rule="evenodd" clip-rule="evenodd" fill="#002B41" d="M10.665,57.16c-0.501,0.227-0.901,0.414-1.361,0.623
		c0.159,0.559,0.345,1.229,0.62,2.209c-0.954-0.357-1.67-0.627-2.343-0.883c-0.23,0.336-0.492,0.703-0.759,1.09
		c0.205,0.268,0.48,0.623,0.798,1.037c0.563-0.135,1.235-0.291,1.904-0.449c0.05,0.078,0.102,0.158,0.153,0.236
		c-0.426,0.484-0.85,0.967-1.276,1.453c0.011,0.129,0.021,0.262,0.034,0.395c0.772,0,1.545,0,2.347,0
		c-0.084-0.828-0.145-1.385-0.223-2.154c0.624,0.242,1.057,0.41,1.766,0.686c0.124-0.668,0.243-1.312,0.409-2.189
		c-0.84,0.344-1.324,0.545-2.097,0.865c0.315-0.719,0.53-1.207,0.787-1.785C11.204,57.965,10.928,57.555,10.665,57.16z"/>
	<path fill-rule="evenodd" clip-rule="evenodd" fill="#002B41" d="M80.817,57.16c-0.504,0.227-0.902,0.414-1.364,0.623
		c0.16,0.559,0.348,1.229,0.619,2.209c-0.952-0.357-1.669-0.627-2.341-0.883c-0.229,0.336-0.493,0.703-0.76,1.09
		c0.206,0.268,0.479,0.623,0.796,1.037c0.568-0.135,1.237-0.291,1.906-0.449c0.05,0.078,0.101,0.158,0.152,0.236
		c-0.426,0.484-0.85,0.967-1.274,1.453c0.01,0.129,0.018,0.262,0.032,0.395c0.772,0,1.546,0,2.346,0
		c-0.083-0.828-0.143-1.385-0.222-2.154c0.622,0.242,1.058,0.41,1.767,0.686c0.123-0.668,0.245-1.312,0.409-2.189
		c-0.84,0.344-1.324,0.545-2.097,0.865c0.316-0.719,0.53-1.207,0.787-1.785C81.354,57.965,81.08,57.555,80.817,57.16z"/>
	<path fill-rule="evenodd" clip-rule="evenodd" fill="#002B41" d="M80.649,26.748c-0.502,0.229-0.902,0.415-1.363,0.624
		c0.16,0.559,0.346,1.229,0.62,2.209c-0.95-0.357-1.668-0.626-2.342-0.881c-0.229,0.333-0.491,0.702-0.758,1.088
		c0.205,0.268,0.48,0.623,0.796,1.036c0.565-0.133,1.234-0.29,1.906-0.448c0.05,0.079,0.099,0.159,0.151,0.237
		c-0.427,0.482-0.85,0.967-1.275,1.452c0.012,0.129,0.02,0.262,0.034,0.394c0.773,0,1.545,0,2.347,0
		c-0.085-0.828-0.146-1.384-0.223-2.152c0.622,0.24,1.057,0.409,1.766,0.685c0.125-0.667,0.244-1.314,0.41-2.189
		c-0.841,0.343-1.325,0.546-2.098,0.863c0.316-0.717,0.531-1.207,0.788-1.783C81.188,27.555,80.912,27.143,80.649,26.748z"/>
	<path fill-rule="evenodd" clip-rule="evenodd" fill="#002B41" d="M73.821,24.726c0.395,1.526,0.623,2.392,0.817,3.147
		c-0.664,0.431-1.291,0.828-1.631,1.044c-0.169-0.182-0.725-0.765-1.316-1.394c0.196-0.373,0.569-1.087,1.131-2.164
		c-1.086,0.194-1.747,0.311-2.948,0.528c0.057-1.026,0.118-1.983,0.186-3.111c1.123,0.462,1.758,0.722,2.39,0.977
		c0.049,0.016,0.129-0.041,0.326-0.117c-0.058-0.435-0.099-0.906-0.195-1.366c-0.098-0.475-0.247-0.941-0.372-1.415
		c0.663-0.399,1.325-0.806,2.005-1.219c0.494,0.361,1.062,0.781,1.639,1.211c-0.539,0.781-1.12,1.616-2.042,2.94
		c1.375-0.342,2.189-0.549,3.389-0.853c0,1.177,0,2.233,0,3.558C76.017,25.877,75.19,25.444,73.821,24.726z"/>
	<path fill-rule="evenodd" clip-rule="evenodd" fill="#002B41" d="M27.725,15.808c0.465,0.508,0.883,0.965,1.368,1.497
		c-0.475,0.54-0.956,1.089-1.498,1.702c-0.744-0.357-1.517-0.728-2.605-1.252c0.196,1,0.324,1.66,0.555,2.822
		c-0.982,0-1.921,0-3.106,0c0.461-1.118,0.738-1.799,1.171-2.847c-1.223,0.203-2.146,0.351-3.125,0.52
		c-0.398-0.591-0.829-1.226-1.284-1.904c0.429-0.492,0.95-1.093,1.428-1.635c0.784,0.551,1.577,1.095,2.36,1.635
		c0.146-0.084,0.291-0.183,0.434-0.27c-0.244-0.744-0.488-1.476-0.867-2.608c1.144,0,2.167,0,3.44,0
		c-0.596,1.292-0.944,2.042-1.509,3.27C25.779,16.365,26.667,16.107,27.725,15.808z"/>
	<path fill-rule="evenodd" clip-rule="evenodd" fill="#002B41" d="M16.445,66.074c-0.428-1.42-0.697-2.33-1.002-3.338
		c0.489-0.406,1.043-0.857,1.66-1.359c0.5,0.562,0.961,1.072,1.459,1.635c-0.293,0.648-0.631,1.389-1.143,2.523
		c1.062-0.238,1.816-0.408,2.954-0.66c-0.079,1.09-0.149,2.096-0.239,3.346c-1.005-0.516-1.7-0.875-2.768-1.428
		c0.211,1.291,0.358,2.213,0.511,3.15c-0.593,0.424-1.219,0.871-1.886,1.346c-0.416-0.342-0.961-0.783-1.598-1.312
		c0.472-0.697,1.048-1.535,1.621-2.377c-0.091-0.135-0.18-0.273-0.266-0.412c-0.809,0.244-1.622,0.48-2.683,0.797
		c0-1.127,0-2.207,0-3.533C14.368,65.076,15.155,65.455,16.445,66.074z"/>
	<path fill-rule="evenodd" clip-rule="evenodd" fill="#002B41" d="M62.648,71.885c0.827,0.406,1.557,0.77,2.64,1.316
		c-0.268-1.123-0.433-1.838-0.71-3c1.021,0,1.99,0,3.248,0C67.31,71.41,67,72.143,66.537,73.219
		c1.227-0.248,2.156-0.434,3.097-0.619c0.393,0.609,0.812,1.262,1.251,1.951c-0.356,0.436-0.806,0.986-1.3,1.588
		c-0.682-0.475-1.464-1.018-2.795-1.939c0.311,1.328,0.479,2.068,0.654,2.83c-0.539,0.33-1.093,0.67-1.648,1.012
		c-0.444-0.346-0.913-0.711-1.424-1.104c0.329-0.705,0.711-1.52,1.286-2.738c-1.4,0.359-2.319,0.6-3.25,0.836
		c-0.459-0.492-0.917-0.982-1.447-1.551C61.462,73.006,62.034,72.461,62.648,71.885z"/>
	<g>
		<path fill-rule="evenodd" clip-rule="evenodd" fill="#002B41" d="M46.533,81.729C46.505,81.736,46.551,81.936,46.533,81.729
			L46.533,81.729z"/>
		<path fill-rule="evenodd" clip-rule="evenodd" fill="#002B41" d="M85.336,49.756c-1.481-0.547-2.701-0.994-3.971-1.461
			c0.063-0.096,0.309-0.453,0.949-1.365c-1.414-0.082-2.392-0.134-3.364-0.209c-0.582-0.045-1.152-0.139-1.731-0.211
			c0.211-0.688,0.234-1.77,0.676-1.978c1.067-0.511,2.318-0.619,3.496-0.882c0.174-0.36,0.502-0.77,0.415-1.043
			c-0.58-1.843,1.888-1.714,3.316-1.905c-4.473-3.048-6.844,1.375-9.207,3.106c0.198-1.265,0.349-2.588,1.08-3.368
			c1.901-2.024,1.996-1.917,0.049-3.657c-0.231-0.209-0.227-0.677-0.455-0.888c-0.538-0.501-1.156-1.269-1.738-1.26
			c-0.51,0.004-1.038,0.888-1.521,1.412c-0.25,0.27-0.381,0.678-0.666,0.897c-1.71,1.322-1.7,1.988,0.095,3.031
			c1.583,0.918,1.812,1.512,1.467,3.084c-2.075-1.01-4.238-2.056-6.403-3.101c-0.055,0.12-0.109,0.233-0.163,0.345
			c1.006,1.376,2.014,2.758,3.064,4.198c-3.701,0.035-7.55,0.808-10.585-2.049c0.559-0.986,0.977-1.937,1.592-2.76
			c1.346-1.82,3.217-1.403,3.872,0.826c1.89-1.133,0.579-2.007-0.168-2.685c0.946-0.677,1.834-1.32,2.726-1.962
			c-0.125-0.238-0.247-0.474-0.374-0.707c-1.073,0.256-2.141,0.508-3.204,0.754c0.391-1.909,0.229-2.126-1.369-2.231
			c0,0.854,0.249,2.366-0.04,2.472c-1.714,0.654-3.474,2.252-5.579,0.253c0.532-1.314,1.102-2.713,1.465-3.597
			c1.543-0.287,2.553-0.474,3.559-0.661c-0.027-0.167-0.057-0.328-0.09-0.496c-0.359-0.201-0.722-0.405-1.201-0.668
			c2.132-2.113,3.761-4.705,7.336-3.851c-0.821-0.442-1.646-0.896-2.614-1.417c0.971-0.523,1.835-0.983,3.219-1.729
			c-1.23-0.096-1.826-0.14-2.43-0.188c0-0.521,0-1.041,0-1.553c-0.114-0.051-0.23-0.102-0.346-0.145
			c-0.639,1.054-1.279,2.104-1.824,3.01c-0.563-0.999-1.076-1.901-1.583-2.8c-0.102,0.235-0.273,0.495-0.216,0.673
			c1.045,3.141-0.805,4.97-2.942,6.828c-0.363-0.503-0.646-0.891-0.926-1.279c-0.197-0.149-0.401-0.301-0.604-0.448
			c0.442,3.781-1.933,4.099-4.215,4.497c-1.401-1.775-1.13-3.618-0.24-5.309c0.167-0.314,1.676,0.082,2.785,0.163
			c-0.177-1.52-0.971-2.108-2.398-1.619c0.233-1.108,0.465-2.237,0.709-3.366c-0.226-0.084-0.45-0.172-0.669-0.259
			c-0.688,0.984-1.363,1.969-1.987,2.874c-0.767-1.629-1.131-1.723-2.56-0.465c2.119,0.947,2.34,3.083,0.481,4.685
			c-1.688,1.463-2.3,1.373-3.348-0.6c-1.591-2.987-1.094-6.175-1.084-8.138c0.735,0.559,1.994,1.522,3.479,2.659
			c0.12-2.839,0.387-5.243-2.944-6.249c2.238-0.742,3.241,0.062,4.193,1.24c2.371,2.932,2.612-1.501,4.262-1.357
			c0.139,0.012,0.489-1.269,0.546-1.97c0.013-0.217-0.603-0.497-0.941-0.737c-0.264-0.189-0.614-0.303-0.817-0.542
			c-1.542-1.83-1.518-1.745-3.195,0.054c-0.693,0.74-1.893,1.008-2.863,1.485c3.312-4.758,3.864-7.319,1.715-9.565
			c-0.467,1.199-0.932,2.393-1.387,3.557c-0.293-1.946-1.71-0.986-1.71-0.986c0,1.085,0.197,2.675,0.069,3.744
			c-0.084,0.724-0.485,1.415-0.745,2.121c-0.583-0.485-1.391-0.864-1.691-1.486c-0.388-0.787-0.52-1.774-0.489-2.67
			c0.051-1.655-0.38-2.417-2.208-1.402c-0.223-0.813-0.521-1.861-0.802-2.878c-2.479,4.314,1.216,6.391,2.943,8.995
			c-1.271-0.233-2.625-0.51-3.38-1.337c-1.851-2.02-1.299-1.475-3.522,0.097c-3.149,2.227-2.124,2.997,0.192,4.722
			c1.563,1.159,1.954,1.527,2.973-0.198c0.874-1.483,2.003-1.952,3.287-1.649c-1.107,2.169-2.202,4.312-3.293,6.457
			c0.136,0.076,0.271,0.153,0.405,0.225c1.384-1.036,2.769-2.071,4.174-3.123c-0.001,3.62,0.794,7.423-1.989,10.565
			c-1.907-0.923-3.786-1.811-3.857-4.133c-0.013-0.47,1.114-0.975,1.764-1.502c-0.875-1.887-1.833-0.312-2.436,0.119
			c-0.936-0.99-1.736-1.83-2.531-2.667l-0.004-0.01c0,1.085,0.138,2.818,0.138,3.443c-0.833,0.897-1.635,0.972-2.305,1.702
			c1.301,0,2.417-0.332,2.98,0.086c0.636,0.468,0.997,1.591,1.07,2.465c0.087,0.96-0.275,1.961-0.512,3.32
			c-1.737-0.781-3.106-1.394-3.943-1.772c-0.321-1.56-0.535-2.575-0.863-4.141c-0.553,1.145-0.779,1.628-1.014,2.107
			c-0.553-0.615-1.094-1.248-1.667-1.846c-1.479-1.535-2.9-3.076-1.482-5.529c-0.191-0.037-0.38-0.08-0.563-0.119
			c-0.472,0.847-0.941,1.691-1.491,2.688c-0.53-1.019-0.988-1.896-1.719-3.307c-0.144,1.231-0.215,1.859-0.274,2.404
			c-0.553,0.056-1.062,0.109-2.171,0.224c1.658,0.917,2.709,1.501,3.89,2.158c-1.196,0.371-2.09,0.65-2.813,0.881
			c1.911,0.627,3.663,1.071,5.299,1.793c0.848,0.371,1.475,1.238,2.199,1.88c-0.522,0.267-1.044,0.53-1.876,0.951
			c1.2,0.556,2.421,0.786,3.084,1.522c0.734,0.825,0.955,2.103,1.649,3.808c-2.276,0-4.076,0-6.188,0
			c0.329-1.171,0.557-1.974,0.788-2.812c-2.038-0.38-2,0.979-1.804,2.071c-1.154-0.173-2.207-0.33-3.263-0.485
			c-0.075,0.227-0.151,0.455-0.23,0.678c1.003,0.608,2.003,1.229,2.934,1.794c-1.888,0.718-2.002,1.221-0.537,2.792
			c0.545-1.89,0.545-1.886,2.481-1.319c0.169,0.052,0.454-0.154,0.557-0.078c0.789,0.61,1.74,1.154,2.236,1.961
			c0.188,0.31-0.508,1.536-1.087,1.874c-2.672,1.61-5.61,1.338-8.85,1.032c1.036-1.285,1.87-2.325,2.572-3.189
			c-1.093,0-2.324-0.3-3.286,0.083c-0.969,0.388-1.678,1.445-2.5,2.206c-0.183-0.951-0.247-2.15,0.238-2.443
			c2.919-1.747,1.766-3.214,0.055-5.046c-1.303-1.396-1.972-1.539-3.02,0.114c-0.178,0.276-0.312,0.614-0.556,0.812
			c-1.721,1.356-1.629,1.541-0.002,3.037c0.744,0.681,1.04,1.854,1.539,2.805c-0.169,0.081-0.337,0.174-0.507,0.266
			c-4.413-3.388-6.26-3.771-8.698-1.757c1.274,0.499,2.516,0.984,3.741,1.459c-0.369,0.29-0.744,0.587-1.113,0.88
			c1.606,0.433,3.218,0.871,5.183,1.407c-0.326,0.481-0.579,1.279-1.093,1.529c-0.854,0.416-1.898,0.416-2.822,0.713
			c-0.597,0.199-1.643,0.787-1.608,0.895c0.704,2.068-0.857,1.656-2.048,1.836c1.426,1.543,2.993,1.676,4.51,0.545
			c1.315-0.98,2.413-2.24,3.607-3.377c0.137,1.133,0.162,2.406-0.447,2.881c-2,1.561-3.36,2.838-0.023,4.342
			c0.168,0.074,0.101,0.596,0.278,0.758c0.487,0.449,1.051,1.127,1.585,1.127c0.531,0,1.118-0.66,1.579-1.127
			c0.409-0.4,0.615-1.006,1.026-1.402c1.171-1.117,1.094-1.965-0.339-2.791c-1.793-1.027-1.992-1.625-1.563-3.182
			c2.043,1.035,4.15,2.104,6.774,3.432c-1.255-1.922-2.135-3.266-3.138-4.811c3.874-0.15,7.476-0.634,10.768,2.377
			c-1.453,1.396-2.786,2.676-4.422,4.248c-0.631-1.279-1.015-2.064-1.41-2.877c-1.567,1.291-1.013,2.258,0.253,2.947
			c-0.935,0.656-1.862,1.309-2.784,1.957c0.126,0.25,0.259,0.504,0.389,0.752c1.175-0.363,2.344-0.729,3.502-1.088
			c-0.25,0.48-0.524,1.008-0.875,1.684c0.704,0.41,1.311,0.762,1.919,1.113c0-1.09-0.296-2.428,0.054-2.633
			c1.581-0.914,3.25-2.324,5.509-0.43c-0.5,1.262-1.071,2.701-1.472,3.709c-1.539,0.227-2.596,0.383-3.648,0.545
			c0.023,0.158,0.044,0.316,0.067,0.482c0.374,0.213,0.747,0.424,1.135,0.646c-1.797,2.631-3.838,4.398-7.094,3.533
			c0.815,0.637,1.635,1.268,2.473,1.92c-0.831,0.418-1.721,0.869-3.158,1.594c1.262,0.123,1.856,0.186,2.461,0.248
			c0,0.518,0,1.014,0,1.508c0.14,0.064,0.273,0.119,0.41,0.182c0.638-1.062,1.279-2.121,1.952-3.229
			c0.353,1.043,0.643,1.898,0.932,2.75c0.59-3.713,2.454-7.557,3.881-7.291c0.142,0.422,0.284,0.846,0.427,1.273
			c0.204,0.197,0.413,0.393,0.621,0.594c-0.057-3.658,2.083-4.363,4.589-4.559c1.255,1.844,1.034,3.662-0.042,5.277
			c-0.218,0.33-1.562-0.094-2.457-0.18c-0.256,1.711,0.841,1.99,2.174,1.643c-0.189,1.146-0.361,2.203-0.535,3.264
			c0.22,0.082,0.432,0.162,0.649,0.244c0.632-0.932,1.256-1.861,1.813-2.686c0.53,1.307,1.454,1.717,2.866,0.424
			c-2.17-0.84-2.485-3.076-0.763-4.703c1.452-1.383,2.28-1.273,3.241,0.523c1.422,2.664,1.238,5.488,0.887,8.572
			c-1.146-0.852-2.554-2.422-3.5-3.121c-0.696,2.412,0.439,5.145,2.734,6.473c-0.993,0.102-2.13,0.254-2.397-0.154
			c-1.704-2.611-3.124-2.41-5.149-0.205c-1.294,1.414-1.558,1.979,0.184,3.049c0.272,0.164,0.526,0.404,0.717,0.664
			c1.225,1.678,1.474,1.594,2.922,0.043c0.76-0.807,1.936-1.213,2.929-1.803c0.105,0.164,0.219,0.336,0.327,0.508
			c-1.974,2.668-4.452,5.221-2.324,9.025c1.292-1.037,0.082-3.764,3.044-3.516c0.538,0.047,0.377-2.023,0.651-3.078
			c0.15-0.58,0.517-1.111,0.786-1.658c0.475,0.434,1.239,0.797,1.369,1.316c0.263,1.057,0.114,2.203,0.263,3.293
			c0.01,0.09,0.017,0.148,0.022,0.195c2.008-0.766,1.823,2.488,2.303,3.447c1.288-1.602,1.607-3.318,0.698-4.793
			c-0.86-1.398-2.018-2.611-3.098-3.967c2.443-0.125,2.761,0,4.074,1.695c0.719,0.934,1.446,1.627,2.55,0.471
			c0.919-0.959,2.192-1.756,2.702-2.896c0.886-1.996-1.831-1.572-2.295-2.789c-0.049-0.129-0.119-0.258-0.205-0.355
			c-1.01-1.207-2.093-1.057-2.614,0.277c-0.724,1.881-1.984,2.002-3.259,1.83c1.031-2.168,2.055-4.309,3.277-6.873
			c-1.812,1.197-3.125,2.061-4.701,3.105c-0.145-3.846-0.582-7.402,1.937-10.328c2.071,0.775,3.789,1.781,3.993,3.953
			c0.046,0.467-1.199,1.059-1.904,1.637c1.029,1.697,1.966,0.445,2.671-0.338c0.692,0.908,1.338,1.768,1.985,2.627
			c0.24-0.131,0.479-0.258,0.718-0.387c-0.342-1.129-0.686-2.258-0.987-3.277c1.986,0.834,2.435,0.576,2.335-1.143
			c-0.785,0-1.703,0.279-2.276-0.053c-1.334-0.77-1.534-3.145-0.643-5.469c0.392,0.059,0.827,0.053,1.207,0.199
			c1.526,0.586,3.624,0.676,2.819,3.332c-0.107,0.352,0.546,0.932,0.918,1.514c0.262-0.582,0.416-0.936,0.678-1.521
			c2.05,2.219,4.99,3.662,3.876,7.471c0.486-0.891,0.972-1.781,1.507-2.764c0.514,0.975,1.005,1.887,1.486,2.811
			c0.129-0.053,0.268-0.105,0.396-0.152c0-0.633,0-1.26,0-1.838c0.597,0,1.07,0,1.546,0c0.047-0.137,0.092-0.273,0.139-0.406
			c-1.076-0.633-2.16-1.271-3.165-1.857c1.12-0.449,2.103-0.85,3.09-1.248c-0.222-0.156-0.471-0.398-0.625-0.348
			c-3.06,0.955-5.011-0.932-6.964-2.717c-0.073-0.514,0.262-0.652,0.262-0.652c0.446-0.285,0.963-0.613,1.601-1.018
			c-3.626,0.035-4.432-1.973-4.645-4.416c1.806-1.387,3.631-1.109,5.279-0.08c0.33,0.211-0.058,1.57-0.121,2.508
			c1.6,0.102,1.998-0.869,1.615-2.182c1.127,0.193,2.166,0.373,3.203,0.551c0.095-0.211,0.186-0.418,0.276-0.621
			c-1-0.686-1.993-1.361-2.885-1.967c1.481-0.342,1.881-1.176,1.05-2.287c-0.956,0.57-1.731,1.178-2.612,1.502
			c-0.386,0.145-1.088-0.168-1.45-0.488c-0.748-0.66-1.537-1.393-1.945-2.264c-0.144-0.316,0.631-1.346,1.198-1.659
			c2.711-1.491,5.63-1.374,8.835-0.954c-0.989,1.248-1.821,2.287-2.661,3.34c2.238-0.217,4.772,0.404,5.849-3.008
			c0.512,2.096,0.194,3.111-1.138,4.043c-3.123,2.191,1.202,2.65,1.178,4.219c-0.002,0.234,1.244,0.504,1.912,0.725
			c0.089,0.027,0.265-0.113,0.35-0.219c0.837-1.025,1.666-2.059,2.411-2.979c-1.057-1.561-2.085-3.074-3.112-4.59
			c0.178-0.146,0.349-0.295,0.526-0.447C78.509,49.807,81.262,52.365,85.336,49.756z M61.451,38.299
			c-0.825,1.228-1.46,2.164-2.29,3.406c-0.506-1.278-0.894-2.263-1.411-3.569C59.252,38.2,60.196,38.242,61.451,38.299z
			 M57.653,32.771c-0.364,1.128-0.675,2.138-1.131,3.555c-0.953-0.903-1.661-1.58-2.567-2.444
			C55.347,33.462,56.417,33.138,57.653,32.771z M51.999,29.092c0.222,1.189,0.394,2.126,0.656,3.547
			c-1.303-0.442-2.31-0.79-3.578-1.22C50.175,30.542,51.016,29.873,51.999,29.092z M45.17,27.683
			c0.637,1.062,1.229,2.047,1.907,3.18c-1.3,0-2.415,0-3.69,0C44.072,29.635,44.61,28.679,45.17,27.683z M38.066,29.09
			c1.188,0.779,2.11,1.386,3.329,2.186c-1.263,0.574-2.284,1.036-3.655,1.661C37.859,31.467,37.957,30.361,38.066,29.09z
			 M32.598,33.012c1.208,0.367,2.142,0.648,3.335,1.007c-0.879,0.928-1.547,1.646-2.459,2.623
			C33.123,35.199,32.898,34.249,32.598,33.012z M28.779,38.63c1.211-0.271,2.218-0.495,3.588-0.805
			c-0.5,1.311-0.876,2.315-1.341,3.537C30.229,40.385,29.62,39.649,28.779,38.63z M27.321,45.357
			c1.136-0.696,2.085-1.274,3.328-2.042c0,1.401,0,2.492,0,3.872C29.462,46.536,28.511,46.014,27.321,45.357z M28.613,52.596
			c0.878-1.24,1.54-2.182,2.38-3.371c0.52,1.209,0.951,2.203,1.457,3.371C31.128,52.596,30.05,52.596,28.613,52.596z M32.457,58.162
			c0.433-1.219,0.8-2.262,1.438-4.064c0.802,1.283,1.379,1.977,2.592,2.74C34.79,57.393,33.738,57.742,32.457,58.162z M38.291,61.77
			c-0.253-1.186-0.453-2.113-0.753-3.488c1.288,0.404,2.285,0.719,3.624,1.137C40.073,60.305,39.292,60.941,38.291,61.77z
			 M45.123,63.447c-0.894-1.402-1.478-2.314-2.359-3.695c1.424,0,2.247,0.053,2.9-0.031l0.814,0.092
			C45.975,61.164,45.77,61.715,45.123,63.447z M52.204,61.795c-1.174-0.768-2.156-1.414-3.464-2.27
			c1.297-0.512,2.282-0.9,3.464-1.367C52.204,59.557,52.204,60.523,52.204,61.795z M48.001,58.361
			c-2.748,0.969-7.696-0.285-7.696-0.285c-1.906-0.379-3.233-1.676-4.743-2.904c-1.547-1.789-2.534-4.084-3.443-6.094
			c-0.567-1.254-0.468-4.6-0.468-4.6c-0.174-1.749,1.721-6.523,1.721-6.523c0.804-1.756,3.12-2.87,4.872-4.113
			c0.829-0.585,2.023-0.78,2.84-1.254c0,0,3.536-1.064,8.5,0.024c3.151,0.691,4.533,3.074,6.715,4.723
			c0.237,0.179,0.319,0.572,0.472,0.87c0,0,1.684,6.028,1.563,7.196c-0.26,2.522-0.333,4.532-1.274,6.569
			c-0.535,1.16-1.797,1.961-2.475,3.076C53.132,56.74,48.001,58.361,48.001,58.361z M54.251,56.834
			c0.788-0.852,1.474-1.596,2.364-2.561c0.413,1.467,0.722,2.588,1.057,3.781C56.526,57.648,55.564,57.303,54.251,56.834z
			 M61.452,52.355c-1.356,0.217-2.291,0.369-3.592,0.582c0.432-1.256,0.774-2.252,1.212-3.533
			C59.926,50.469,60.57,51.264,61.452,52.355z M59.522,47.626l-0.313-3.716c1.232,0.492,2.471,0.981,3.859,1.536
			C61.801,46.221,60.816,46.83,59.522,47.626z"/>
		<path fill-rule="evenodd" clip-rule="evenodd" fill="#002B41" d="M68.311,63.631c-0.007,0.004-0.012,0.008-0.02,0.012
			c0.027,0.016,0.054,0.037,0.08,0.053L68.311,63.631z"/>
		<path fill-rule="evenodd" clip-rule="evenodd" fill="#002B41" d="M21.294,63.266c0.083,0.025,0.16,0.041,0.24,0.062
			c-0.054-0.043-0.111-0.088-0.166-0.131L21.294,63.266z"/>
		<path fill-rule="evenodd" clip-rule="evenodd" fill="#002B41" d="M81.429,43.643c-0.013,0.004-0.024,0.006-0.037,0.007
			c-0.01,0.022-0.021,0.043-0.03,0.063L81.429,43.643z"/>
		<path fill-rule="evenodd" clip-rule="evenodd" fill="#002B41" d="M63.071,22.29c0.006,0.009,0.011,0.02,0.016,0.027
			c0.013-0.027,0.027-0.057,0.036-0.085L63.071,22.29z"/>
		<path fill-rule="evenodd" clip-rule="evenodd" fill="#002B41" d="M8.143,43.621c0.013-0.012,0.025-0.023,0.041-0.033
			c-0.029-0.007-0.061-0.018-0.09-0.025L8.143,43.621z"/>
	</g>
	<path fill-rule="evenodd" clip-rule="evenodd" fill="#002B41" d="M21.062,30.866c-0.396-1.284-0.649-2.122-1.013-3.299
		c0.75,0.151,1.685,0.11,1.822,0.421c0.264,0.596,0.076,1.394,0.076,2.081c1.032-0.156,2.24-0.338,3.447-0.518
		c0.063,0.207,0.125,0.411,0.187,0.615c-0.335,0.483-0.667,0.96-1.08,1.552c-0.507-0.089-1.157-0.194-1.804-0.299
		c-0.079,0.116-0.16,0.24-0.242,0.361c0.542,0.408,1.091,0.812,1.936,1.445c-0.935,0.504-1.773,0.965-2.877,1.562
		c-0.128-1.105-0.21-1.774-0.336-2.788c-0.792,0.414-1.419,0.736-2.2,1.142c-0.366-0.288-0.874-0.69-1.375-1.09
		c0.328-0.479,0.711-1.048,1.045-1.54C19.286,30.604,19.948,30.703,21.062,30.866z"/>
	<path fill-rule="evenodd" clip-rule="evenodd" fill="#002B41" d="M31.639,21.647c-0.395-1.283-0.648-2.122-1.013-3.299
		c0.748,0.151,1.684,0.11,1.822,0.421c0.264,0.596,0.078,1.394,0.078,2.081c1.031-0.155,2.24-0.338,3.447-0.518
		c0.063,0.207,0.125,0.411,0.186,0.614c-0.334,0.483-0.666,0.961-1.078,1.553c-0.509-0.088-1.159-0.193-1.805-0.298
		c-0.079,0.117-0.159,0.241-0.244,0.36c0.545,0.408,1.094,0.813,1.938,1.446c-0.935,0.504-1.773,0.965-2.877,1.562
		c-0.128-1.104-0.21-1.774-0.336-2.787c-0.792,0.414-1.419,0.736-2.202,1.141c-0.366-0.287-0.873-0.69-1.372-1.09
		c0.327-0.479,0.709-1.047,1.042-1.539C29.865,21.385,30.525,21.484,31.639,21.647z"/>
	<path fill-rule="evenodd" clip-rule="evenodd" fill="#002B41" d="M58.294,21.647c-0.393-1.283-0.646-2.122-1.013-3.299
		c0.75,0.151,1.686,0.11,1.822,0.421c0.266,0.596,0.079,1.394,0.079,2.081c1.03-0.155,2.239-0.338,3.446-0.518
		c0.064,0.207,0.125,0.411,0.188,0.614c-0.335,0.483-0.665,0.961-1.08,1.553c-0.509-0.088-1.158-0.193-1.804-0.298
		c-0.079,0.117-0.161,0.241-0.243,0.36c0.543,0.408,1.092,0.813,1.937,1.446c-0.935,0.504-1.773,0.965-2.879,1.562
		c-0.128-1.104-0.209-1.774-0.334-2.787c-0.793,0.414-1.421,0.736-2.202,1.141c-0.367-0.287-0.873-0.69-1.373-1.09
		c0.329-0.479,0.71-1.047,1.043-1.539C56.521,21.385,57.182,21.484,58.294,21.647z"/>
	<path fill-rule="evenodd" clip-rule="evenodd" fill="#002B41" d="M58.294,69.428c-0.393-1.285-0.646-2.123-1.013-3.303
		c0.75,0.152,1.686,0.115,1.822,0.422c0.266,0.598,0.079,1.395,0.079,2.082c1.03-0.156,2.239-0.34,3.446-0.52
		c0.064,0.207,0.125,0.412,0.188,0.617c-0.335,0.484-0.665,0.961-1.08,1.551c-0.509-0.088-1.158-0.191-1.804-0.299
		c-0.079,0.115-0.161,0.24-0.243,0.361c0.543,0.408,1.092,0.812,1.937,1.445c-0.935,0.506-1.773,0.965-2.879,1.561
		c-0.128-1.102-0.209-1.77-0.334-2.785c-0.793,0.414-1.421,0.736-2.202,1.141c-0.367-0.287-0.873-0.689-1.373-1.09
		c0.329-0.48,0.71-1.049,1.043-1.539C56.521,69.164,57.182,69.262,58.294,69.428z"/>
	<path fill-rule="evenodd" clip-rule="evenodd" fill="#002B41" d="M30.037,69.428c-0.394-1.285-0.647-2.123-1.012-3.303
		c0.748,0.152,1.685,0.115,1.822,0.422c0.263,0.598,0.077,1.395,0.077,2.082c1.033-0.156,2.24-0.34,3.448-0.52
		c0.062,0.207,0.123,0.412,0.188,0.617c-0.335,0.484-0.667,0.961-1.079,1.551c-0.51-0.088-1.159-0.191-1.805-0.299
		c-0.08,0.115-0.16,0.24-0.244,0.361c0.544,0.408,1.092,0.812,1.939,1.445c-0.935,0.506-1.775,0.965-2.879,1.561
		c-0.128-1.102-0.21-1.77-0.338-2.785c-0.791,0.414-1.418,0.736-2.2,1.141c-0.365-0.287-0.873-0.689-1.373-1.09
		c0.329-0.48,0.711-1.049,1.042-1.539C28.263,69.164,28.925,69.262,30.037,69.428z"/>
	<path fill-rule="evenodd" clip-rule="evenodd" fill="#002B41" d="M69.146,30.416c-0.341-0.617-0.627-1.143-1.041-1.893
		c0.833-0.254,1.648-0.494,2.586-0.78c-0.302,1.155-0.551,2.116-0.728,2.778c1.152,0.503,2.05,0.89,2.959,1.284
		c-0.94,1.914-1.972,1.491-3.202,0.288c-0.096,1.035-0.154,1.678-0.246,2.711c-0.963-0.381-1.814-0.714-2.916-1.151
		c0.833-0.658,1.338-1.065,1.854-1.462c-0.088-0.124-0.168-0.247-0.255-0.368c-0.59,0.091-1.181,0.184-1.786,0.279
		c-0.321-0.484-0.658-0.978-1.393-2.07C66.562,30.179,67.689,30.281,69.146,30.416z"/>
	<path fill-rule="evenodd" clip-rule="evenodd" fill="#002B41" d="M21.368,63.197c-0.566-0.125-1.124-0.252-1.72-0.385
		c0.249-0.924,0.496-1.83,0.664-2.461c-1.118-0.447-2.014-0.814-3.126-1.266c0.709-0.688,1.127-1.084,1.571-1.52
		c0.459,0.271,0.99,0.59,1.701,1.016c0.048-0.84,0.081-1.496,0.133-2.508c1.039,0.383,1.992,0.73,3.218,1.18
		c-0.854,0.645-1.413,1.07-2.476,1.865c1.27-0.129,1.917-0.197,2.657-0.273c0.288,0.402,0.662,0.92,1.403,1.949
		c-1.501,0-2.668,0-3.892,0c-0.038,0.477-0.123,1.471-0.208,2.471L21.368,63.197z"/>
	<path fill-rule="evenodd" clip-rule="evenodd" fill="#002B41" d="M69.063,63.197c-0.565-0.125-1.122-0.252-1.718-0.385
		c0.248-0.924,0.496-1.83,0.662-2.461c-1.116-0.447-2.013-0.814-3.125-1.266c0.71-0.688,1.129-1.084,1.57-1.52
		c0.461,0.271,0.992,0.59,1.704,1.016c0.045-0.84,0.078-1.496,0.129-2.508c1.04,0.383,1.993,0.73,3.22,1.18
		c-0.856,0.645-1.411,1.07-2.476,1.865c1.271-0.129,1.919-0.197,2.657-0.273c0.288,0.402,0.663,0.92,1.404,1.949
		c-1.504,0-2.667,0-3.892,0c-0.041,0.477-0.124,1.471-0.209,2.471L69.063,63.197z"/>
	<path fill-rule="evenodd" clip-rule="evenodd" fill="#002B41" d="M84.573,63.697c-0.281-0.828-0.525-1.527-0.771-2.244
		c0.746-0.344,1.418-0.654,2.089-0.957c0.198,0.658,0.403,1.35,0.604,2.014C85.932,62.854,85.311,63.244,84.573,63.697z"/>
	<path fill-rule="evenodd" clip-rule="evenodd" fill="#002B41" d="M84.573,30.521c-0.281-0.833-0.525-1.529-0.771-2.248
		c0.746-0.344,1.418-0.652,2.089-0.959c0.198,0.66,0.403,1.354,0.604,2.019C85.932,29.677,85.311,30.066,84.573,30.521z"/>
	<path fill-rule="evenodd" clip-rule="evenodd" fill="#002B41" d="M83.06,46.452c-0.283-0.833-0.527-1.533-0.771-2.248
		c0.745-0.343,1.418-0.652,2.088-0.959c0.2,0.66,0.404,1.353,0.605,2.018C84.418,45.608,83.798,45.997,83.06,46.452z"/>
	<path fill-rule="evenodd" clip-rule="evenodd" fill="#002B41" d="M7.129,46.452c-0.282-0.833-0.525-1.533-0.771-2.248
		c0.745-0.343,1.419-0.652,2.089-0.959c0.199,0.66,0.405,1.353,0.606,2.018C8.488,45.608,7.867,45.997,7.129,46.452z"/>
	<path fill-rule="evenodd" clip-rule="evenodd" fill="#002B41" d="M60.888,6.799c-0.282-0.832-0.525-1.531-0.771-2.248
		c0.745-0.343,1.418-0.653,2.088-0.958c0.201,0.659,0.405,1.353,0.605,2.018C62.247,5.953,61.625,6.346,60.888,6.799z"/>
	<path fill-rule="evenodd" clip-rule="evenodd" fill="#002B41" d="M60.888,87.547c-0.282-0.832-0.525-1.529-0.771-2.246
		c0.745-0.342,1.418-0.652,2.088-0.957c0.201,0.66,0.405,1.354,0.605,2.016C62.247,86.703,61.625,87.094,60.888,87.547z"/>
	<path fill-rule="evenodd" clip-rule="evenodd" fill="#002B41" d="M28.756,87.547c0.281-0.832,0.527-1.529,0.771-2.246
		c-0.745-0.342-1.419-0.652-2.089-0.957c-0.199,0.66-0.404,1.354-0.604,2.016C27.398,86.703,28.019,87.094,28.756,87.547z"/>
	<path fill-rule="evenodd" clip-rule="evenodd" fill="#002B41" d="M5.732,63.697c0.281-0.828,0.528-1.527,0.772-2.244
		c-0.745-0.344-1.42-0.654-2.09-0.957c-0.197,0.658-0.403,1.35-0.604,2.014C4.374,62.854,4.996,63.244,5.732,63.697z"/>
	<path fill-rule="evenodd" clip-rule="evenodd" fill="#002B41" d="M5.732,30.521c0.281-0.833,0.528-1.529,0.772-2.248
		c-0.745-0.344-1.42-0.652-2.09-0.959c-0.197,0.66-0.403,1.354-0.604,2.019C4.374,29.677,4.996,30.066,5.732,30.521z"/>
	<path fill-rule="evenodd" clip-rule="evenodd" fill="#002B41" d="M28.756,6.799c0.281-0.832,0.527-1.531,0.771-2.248
		c-0.745-0.343-1.419-0.653-2.089-0.958c-0.199,0.659-0.404,1.353-0.604,2.018C27.398,5.953,28.019,6.346,28.756,6.799z"/>
	<g>
		<path fill-rule="evenodd" clip-rule="evenodd" fill="#002B41" d="M47.893,47.441c-0.538-0.699-1.065-1.385-1.634-2.12
			c0.576-0.632,1.152-1.271,1.733-1.917c0.892,0.351,1.786,0.694,3.053,1.186c-0.315-1.099-0.548-1.898-0.897-3.103
			c1.077,0,2.082,0,3.338,0c-0.455,1.167-0.758,1.947-1.06,2.725c0.112,0.114,0.224,0.233,0.334,0.349
			c0.843-0.469,1.688-0.946,2.514-1.415c0.392,0.675,0.842,1.438,1.351,2.309c-0.332,0.47-0.837,1.171-1.489,2.092
			c-0.583-0.327-1.447-0.816-2.795-1.576c0.363,1.192,0.608,1.97,0.959,3.104c-1.038,0.15-2.083,0.303-3.399,0.486
			c0.482-1.307,0.775-2.096,1.235-3.357C49.79,46.721,48.923,47.047,47.893,47.441z"/>
		<path fill-rule="evenodd" clip-rule="evenodd" fill="#002B41" d="M45.153,57.129c-0.63-0.371-1.313-0.781-2.209-1.322
			c0.329-0.588,0.826-1.473,1.623-2.895c-1.339,0.459-2.127,0.727-3.412,1.166c-0.049-1.178-0.098-2.199-0.153-3.369
			c1.196,0.428,2.021,0.723,3.441,1.225c-0.614-1.398-1.001-2.287-1.369-3.125c0.684-0.553,1.367-1.09,2.07-1.658
			c0.684,0.547,1.381,1.105,2.102,1.678c-0.368,0.801-0.757,1.652-1.373,3c1.36-0.406,2.222-0.668,3.457-1.043
			c-0.083,1.094-0.163,2.111-0.256,3.322c-1.188-0.443-1.948-0.732-3.25-1.217c0.696,1.316,1.169,2.219,1.625,3.082
			C46.671,56.361,45.903,56.752,45.153,57.129z"/>
		<path fill-rule="evenodd" clip-rule="evenodd" fill="#002B41" d="M37.265,46.051c-0.848,0.534-1.696,1.067-2.497,1.572
			c-0.335-0.754-0.683-1.526-1.096-2.449c0.258-0.479,0.674-1.24,1.156-2.128c0.678,0.399,1.576,0.933,2.474,1.466
			c0.119-0.088,0.238-0.18,0.356-0.271c-0.324-0.78-0.653-1.557-1.088-2.607c1.069-0.141,2.125-0.283,3.553-0.476
			c-0.548,1.333-0.854,2.067-1.373,3.319c1.359-0.468,2.272-0.785,3.294-1.135c0.473,0.569,1.023,1.226,1.637,1.96
			c-0.557,0.679-1.099,1.34-1.642,1.993c-0.933-0.372-1.831-0.731-3.192-1.282c0.404,1.15,0.675,1.932,1.108,3.154
			c-1.156,0-2.178,0-3.438,0c0.465-1.156,0.784-1.947,1.101-2.737C37.5,46.304,37.381,46.176,37.265,46.051z"/>
		<path fill-rule="evenodd" clip-rule="evenodd" fill="#002B41" d="M49.434,39.668c-1.36-0.391-2.21-0.637-3.4-0.979
			c0.5,1.313,0.831,2.185,1.143,3c-0.75,0.58-1.374,1.076-2.043,1.597c-0.718-0.593-1.385-1.137-1.968-1.626
			c0.387-0.977,0.718-1.816,1.25-3.141c-1.361,0.497-2.167,0.795-3.514,1.296c0.165-1.348,0.291-2.35,0.417-3.376
			c1.095,0.357,1.895,0.619,2.689,0.884c0.1-0.137,0.194-0.272,0.296-0.402c-0.507-0.819-1.017-1.637-1.325-2.118l2.242-1.626
			c0.733,0.506,1.465,1.009,2.209,1.518c-0.375,0.667-0.842,1.499-1.311,2.334c0.126,0.103,0.242,0.208,0.368,0.318
			c0.75-0.287,1.497-0.578,2.478-0.954C49.118,37.453,49.265,38.462,49.434,39.668"/>
	</g>
</g>
<g>
	<g>
		<path fill="#002B41" d="M120.551,39.68c-1.965,1.095-4.201,1.603-6.434,1.603c-5.343,0-9.181-3.642-9.181-9.035
			c0-5.416,4.105-9.035,9.254-9.035c2.257,0,4.445,0.609,6.071,2.259l-1.531,1.604c-1.165-1.264-2.937-1.967-4.687-1.967
			c-3.935,0-6.921,2.961-6.921,7.139c0,4.104,2.89,7.14,7.115,7.14c1.385,0,3.012-0.363,4.274-0.995v-5.27h-3.958v-1.894h5.997
			V39.68z"/>
		<path fill="#002B41" d="M128.467,23.653h4.395c3.325,0,6.849,0.484,6.849,4.735c0,2.501-1.626,4.129-4.299,4.542l4.881,7.917
			h-2.501l-4.662-7.724h-2.623v7.724h-2.039V23.653z M130.505,31.229h1.821c2.258,0,5.198,0,5.198-2.842
			c0-2.476-2.163-2.842-4.153-2.842h-2.867V31.229z"/>
		<path fill="#002B41" d="M152.528,23.653h1.918l7.31,17.194h-2.379l-1.75-4.227h-8.596l-1.773,4.227h-2.307L152.528,23.653z
			 M153.452,26.275h-0.049l-3.569,8.45h7.02L153.452,26.275z"/>
		<path fill="#002B41" d="M179.725,27.198c-1.021-1.386-2.647-2.089-4.298-2.089c-3.839,0-6.559,3.377-6.559,7.139
			c0,3.984,2.696,7.14,6.559,7.14c2.087,0,3.763-0.851,4.978-2.404l1.531,1.288c-1.531,2.065-3.766,3.011-6.509,3.011
			c-4.931,0-8.743-3.812-8.743-9.035c0-5.05,3.642-9.035,8.743-9.035c2.331,0,4.613,0.804,6.07,2.699L179.725,27.198z"/>
		<path fill="#002B41" d="M188.416,23.653h10.807v1.893h-8.768v5.393h8.185v1.893h-8.185v6.121h9.204v1.895h-11.244V23.653z"/>
		<path fill="#002B41" d="M216.848,23.653h2.039v15.299h7.869v1.895h-9.908V23.653z"/>
		<path fill="#002B41" d="M231.634,32.249c0-5.196,3.766-9.035,8.987-9.035s8.982,3.839,8.982,9.035
			c0,5.196-3.761,9.035-8.982,9.035S231.634,37.445,231.634,32.249z M247.42,32.249c0-3.958-2.767-7.139-6.799-7.139
			c-4.031,0-6.801,3.181-6.801,7.139c0,3.958,2.77,7.14,6.801,7.14C244.653,39.388,247.42,36.206,247.42,32.249z"/>
		<path fill="#002B41" d="M254.165,23.653h2.308l5.294,14.135h0.05l5.465-14.135h2.161l-6.728,17.194h-1.967L254.165,23.653z"/>
		<path fill="#002B41" d="M275.001,23.653h10.807v1.893h-8.767v5.393h8.184v1.893h-8.184v6.121h9.202v1.895h-11.242V23.653z"/>
		<path fill="#002B41" d="M301.2,26.688c-0.68-1.095-1.894-1.579-3.133-1.579c-1.797,0-3.667,0.85-3.667,2.89
			c0,1.579,0.874,2.282,3.619,3.157c2.672,0.851,5.146,1.723,5.146,5.1c0,3.424-2.938,5.027-6.045,5.027
			c-1.991,0-4.13-0.657-5.296-2.378l1.751-1.434c0.728,1.262,2.185,1.917,3.665,1.917c1.749,0,3.74-1.02,3.74-2.985
			c0-2.114-1.432-2.479-4.492-3.497c-2.428-0.804-4.273-1.871-4.273-4.735c0-3.306,2.842-4.957,5.852-4.957
			c1.919,0,3.546,0.535,4.808,2.018L301.2,26.688z"/>
		<path fill="#002B41" d="M320.574,23.653h2.041v15.299h7.868v1.895h-9.909V23.653z"/>
		<path fill="#002B41" d="M341.942,23.653h1.92l7.309,17.194h-2.38l-1.748-4.227h-8.597l-1.773,4.227h-2.306L341.942,23.653z
			 M342.866,26.275h-0.048l-3.569,8.45h7.018L342.866,26.275z"/>
		<path fill="#002B41" d="M369.14,27.198c-1.021-1.386-2.646-2.089-4.299-2.089c-3.837,0-6.557,3.377-6.557,7.139
			c0,3.984,2.696,7.14,6.557,7.14c2.087,0,3.765-0.851,4.979-2.404l1.529,1.288c-1.529,2.065-3.763,3.011-6.508,3.011
			c-4.931,0-8.743-3.812-8.743-9.035c0-5.05,3.643-9.035,8.743-9.035c2.333,0,4.613,0.804,6.07,2.699L369.14,27.198z"/>
		<path fill="#002B41" d="M377.829,23.653h10.808v1.893h-8.768v5.393h8.185v1.893h-8.185v6.121h9.205v1.895h-11.245V23.653z"/>
	</g>
	<g>
		<path fill-rule="evenodd" clip-rule="evenodd" fill="#B17129" d="M155.823,65.504c-1.514,0.438-3.072,0.678-4.431,1.334
			c-1.418,0.684-2.607,1.826-3.965,2.656c-1.533,0.932-3.017,2.182-5.035,1.541c-0.298-0.094-0.583-0.322-0.79-0.561
			c-0.101-0.117-0.085-0.467,0.019-0.59c0.11-0.133,0.464-0.232,0.585-0.152c1.736,1.143,3.017-0.156,4.368-0.842
			c0.8-0.406,1.478-1.051,2.205-1.582c-0.354-0.303-0.67-0.568-0.987-0.838c0.326-0.211,0.624-0.533,0.979-0.613
			c3.307-0.762,4.899-3.561,6.924-5.828c0.23-0.26,0.173-0.816,0.178-1.234c0.029-3.166,0.796-6.168,2.041-9.049
			c0.256-0.592,0.859-1.034,1.302-1.545c0.332,0.629,0.874,1.23,0.96,1.891c0.375,2.854-0.347,5.543-2.061,7.787
			c-1.381,1.807-1.993,3.631-1.467,6.227c1.843-1.215,3.607-2.316,5.304-3.518c1.611-1.143,1.618-2.734,1.242-4.52
			c-0.159-0.762,0.163-1.686,0.455-2.463c0.327-0.869,1.127-0.695,1.374-0.055c0.525,1.379,1.171,2.762,0.205,4.34
			c-0.618,1.012-1.045,2.271-1.135,3.451c-0.174,2.312-0.049,4.648-0.049,6.973c0.215,0.047,0.429,0.094,0.646,0.139
			c0.69-1.449,1.378-2.9,2.132-4.486c-0.168-0.062,0.096,0.135,0.217,0.066c2.812-1.547,4.547,0.863,6.586,1.885
			c1.892,0.947,3.388,1.494,5.677,1.256c-0.036-1.588-0.032-3.197,1.398-4.375c1.637-1.344,3.427-2.215,5.567-1.803
			c0.537,0.102,1.221,0.713,1.382,1.229c0.328,1.068-0.02,2.152-1.009,2.775c-1.464,0.924-3.009,1.725-4.521,2.576
			c-0.265,0.148-0.533,0.293-1.067,0.586c4.707,3.006,8.629,0.729,12.753-0.967c-0.195,0.266-0.33,0.619-0.59,0.783
			c-3.061,1.934-6.244,3.416-10.018,2.48c-0.179-0.043-0.348-0.135-0.512-0.227c-1.831-1.004-3.496-2.055-5.859-1.98
			c-2.57,0.082-4.669-1.77-6.786-3.16c-1.445-0.949-2.216-0.629-2.474,1.062c-0.278,1.83-2.5,4.191-4.885,4.607
			c-3.192,0.555-5.682-0.861-6.839-3.986C155.685,66.348,155.823,65.809,155.823,65.504z M156.553,65.166
			c0.447,3.697,3.195,5.049,5.74,4.76c0.896-0.102,1.161-0.432,1.112-1.256c-0.114-1.969-0.228-3.939-0.276-5.91
			c-0.02-0.785,0.139-1.576,0.191-2.105C161.088,62.145,158.834,63.645,156.553,65.166z M186.772,62.676
			c-1.95-1.268-3.506-0.387-5.021,0.641c-1.318,0.896-1.497,2.176-1.151,3.629C184.438,65.838,186.142,64.672,186.772,62.676z
			 M156.849,58.104c2.002-2.467,2.924-5.213,2.381-8.77C157.547,52.287,156.772,55.078,156.849,58.104z M155.771,61.287
			c-1.323,1.51-2.451,2.799-3.75,4.283C155.485,64.871,155.485,64.871,155.771,61.287z"/>
		<path fill-rule="evenodd" clip-rule="evenodd" fill="#B17129" d="M325.658,61.65c-1.026-0.334-1.677-0.553-2.333-0.758
			c-3.559-1.125-7.15,1.807-6.825,5.5c0.107,1.225,1.448,2.287,2.717,2.029c1.517-0.311,2.961-0.787,4.01-2.115
			c0.731-0.926,1.679-1.68,2.532-2.51c1.28-1.246,1.094-2.971,1.419-4.512c0.29-1.385,0.342-2.82,0.639-4.205
			c0.122-0.566,0.606-1.053,0.927-1.576c0.258,0.545,0.699,1.074,0.739,1.633c0.154,2.059-0.131,4.053-1.05,5.959
			c-0.886,1.84-0.048,3.473,1.142,4.777c1.262,1.385,3.07,1.246,4.789,1.021c0.367-0.047,0.721-0.195,1.182-0.328
			c0.011-0.18,0.081-0.42,0.026-0.629c-0.951-3.664,0.026-5.738,3.492-7.164c1.345-0.555,2.686-1.033,4.244-0.484
			c1.736,0.611,1.977,1.92,0.686,3.873c-1.427,2.162-3.654,3.418-5.939,4.535c0.711,1.08,2.247,1.645,4.318,1.762
			c4.162,0.234,7.627-1.434,10.801-3.891c0.762-0.59,0.838-1.381,0.104-2.199c0.1-0.109,0.199-0.219,0.3-0.328
			c0.416,0.205,1.135,0.355,1.187,0.629c0.115,0.627,0.157,1.635-0.213,1.928c-1.699,1.34-3.434,2.729-5.37,3.646
			c-3.357,1.59-7.078,2.113-10.419,0.379c-1.9-0.988-3.354-0.875-5.242-0.533c-3.066,0.555-4.893-0.77-6.088-3.811
			c-0.065-0.168-0.237-0.293-0.341-0.416c-1.374,1.25-2.742,2.467-4.08,3.719c-1.222,1.145-2.602,1.797-4.319,1.746
			c-2.054-0.061-3.587-1.508-3.324-3.541c0.496-3.807,1.914-5.539,5.621-6.209c1.303-0.234,2.806,0.578,4.201,0.973
			C325.349,60.598,325.4,61.023,325.658,61.65z M336.176,64.012c0.036,1.756,0.879,2.285,2.325,1.344
			c1.267-0.82,2.465-1.758,3.616-2.736c0.847-0.721,2.031-1.631,1.357-2.803c-0.668-1.16-2.062-0.586-3.148-0.32
			C338.078,60.047,336.136,62.193,336.176,64.012z"/>
		<path fill-rule="evenodd" clip-rule="evenodd" fill="#B17129" d="M287.537,63.705c1.184-1.191,2.237-2.564,3.582-3.531
			c2.159-1.549,5.546,0.08,5.98,2.721c0.478,2.889-0.788,5.158-3.656,5.865c-0.851,0.209-1.649,0.707-2.507,0.812
			c-1.569,0.193-2.663-0.488-3.948-1.6c-1.701-1.473-0.094-2.75-0.482-4.039c-0.13-0.426,0.125-0.967,0.251-1.736
			c-2.658,2.447-4.686,5.199-7.881,6.387c-0.127-0.141-0.257-0.279-0.387-0.418c0.257-0.303,0.46-0.682,0.775-0.895
			c2.842-1.914,5.374-4.193,7.6-6.77c0.561-0.648,0.478-1.855,0.688-2.805c0.565-2.539,1.103-5.082,1.715-7.607
			c0.091-0.382,0.522-0.682,0.796-1.02c0.318,0.428,0.811,0.813,0.927,1.289c0.778,3.209-0.426,5.961-1.949,8.701
			c-0.812,1.465-1.226,3.152-1.818,4.74C287.326,63.768,287.432,63.736,287.537,63.705z M290.036,65.529
			c0.064,0.133,0.127,0.268,0.192,0.4c-0.359,0.26-0.756,0.482-1.064,0.791c-0.293,0.291-0.494,0.672-0.735,1.014
			c0.346,0.238,0.672,0.643,1.041,0.686c1.974,0.232,3.729-0.408,5.301-1.566c0.986-0.727,1.478-2.711,1.031-3.904
			c-0.521-1.395-1.408-2.143-3.011-2.049c-1.932,0.111-4.048,2.307-4.513,4.938C288.881,65.732,289.458,65.631,290.036,65.529z
			 M288.358,57.627c1.63-1.627,2.289-4.482,1.281-6.168C289.232,53.424,288.824,55.389,288.358,57.627z"/>
		<path fill-rule="evenodd" clip-rule="evenodd" fill="#B17129" d="M273.061,66.355c-3.788,3.734-8.072,5.363-12.605,2.334
			c-0.362-0.242-0.988-0.441-1.339-0.295c-4.178,1.75-6.088,0.012-7.648-3.014c-0.87,0.781-1.732,1.6-2.642,2.361
			c-1.779,1.494-4.604,0.514-4.939-1.773c-0.262-1.783-0.301-3.598-0.441-5.426c0.917-0.34,1.306-0.221,1.286,0.695
			c-0.023,1.305,0.011,2.613,0.03,3.92c0.021,1.322,1.485,2.303,2.767,1.867c2.101-0.711,3.716-2.826,3.882-4.924
			c0.032-0.404,0.459-0.779,0.702-1.166c0.237,0.395,0.634,0.77,0.683,1.186c0.137,1.133-0.114,2.363,0.227,3.412
			c0.744,2.275,3.171,3.26,5.589,1.725c0-1.326-0.107-2.518,0.022-3.684c0.301-2.682,3.569-4.141,5.52-3.77
			c1.626,0.311,2.302,1.795,1.263,3.076c-1.159,1.43-2.579,2.65-3.896,3.951c-0.183,0.18-0.42,0.307-0.855,0.617
			c1.608,1.129,3.104,1.76,4.962,1.705c2.446-0.072,4.361-1.275,6.286-2.547C272.114,66.473,272.417,66.488,273.061,66.355z
			 M260.347,66.625c1.346-1.268,2.634-2.375,3.793-3.604c0.896-0.947,0.676-1.439-0.375-1.832c-1.669-0.623-2.681,0.332-3.472,1.451
			C259.492,63.773,259.145,65.105,260.347,66.625z"/>
		<path fill-rule="evenodd" clip-rule="evenodd" fill="#B17129" d="M213.18,65.273c-0.975,0.814-1.776,1.744-2.791,2.26
			c-1.004,0.51-2.714-0.297-2.93-1.371c-0.372-1.871-0.474-3.795-0.656-5.701c-0.059-0.611-0.009-1.232-0.009-2.1
			c0.075-0.023,0.44-0.131,0.807-0.24c0.122,0.533,0.428,1.104,0.334,1.596c-0.327,1.74-0.408,3.463,0.357,5.078
			c0.303,0.637,0.983,1.508,1.504,1.518c0.623,0.012,1.494-0.652,1.844-1.264c0.672-1.162,1.032-2.5,1.569-3.746
			c0.108-0.254,0.426-0.418,0.645-0.623c0.16,0.266,0.441,0.525,0.458,0.799c0.057,0.959,0.021,1.924,0.021,3.23
			c0.473-0.684,0.804-1.1,1.065-1.555c0.823-1.422,1.876-1.625,3.104-0.582c1.084,0.922,2.113,1.922,3.271,2.74
			c1.859,1.316,3.863,0.994,5.571-0.406c1.333-1.092,1.921-2.455,2.347-4.016c0.14-0.514,0.585-0.941,1.094-1.318
			c0.766,2.758-1.663,5.275-0.218,8.148c0.224-0.438,0.38-0.752,0.549-1.061c0.156-0.291,0.322-0.574,0.485-0.861
			c0.183,0.072,0.366,0.145,0.55,0.217c-0.281,0.883-0.479,1.805-0.88,2.625c-0.156,0.32-0.811,0.619-1.175,0.555
			c-0.357-0.064-0.821-0.551-0.911-0.93c-0.239-1.018-0.302-2.076-0.433-3.096c-2.294,2.312-5.183,3.111-8.068,1.064
			c-0.941-0.668-1.771-1.521-2.558-2.377c-0.943-1.027-1.595-0.414-2.019,0.381c-0.518,0.977-0.808,2.074-1.192,3.121
			c-0.064,0.176-0.063,0.4-0.176,0.531c-0.327,0.387-0.697,0.74-1.051,1.105c-0.17-0.453-0.439-0.896-0.488-1.363
			C213.121,66.832,213.18,66.016,213.18,65.273z"/>
		<path fill-rule="evenodd" clip-rule="evenodd" fill="#B17129" d="M241.912,61.205c0.066,0.572,0.297,1.182,0.172,1.709
			c-1.043,4.338-2.172,8.656-3.212,12.994c-0.13,0.539,0.216,1.182,0.137,1.746c-0.103,0.727-0.412,1.424-0.634,2.133
			c-0.175-0.004-0.348-0.008-0.523-0.014c-0.12-0.441-0.408-0.91-0.335-1.316c0.462-2.545,1.004-5.076,1.518-7.611
			c0.282-1.402,0.556-2.807,0.778-3.928c-1.36,0.562-2.669,1.297-4.073,1.643c-2.326,0.572-3.453-0.723-2.89-3.098
			c0.769-3.244,3.664-5.6,6.7-5.383c0.427,0.029,0.832,0.365,1.448,0.652c-1.784,0.521-3.21,0.785-4.504,1.354
			c-1.638,0.717-2.328,2.285-2.725,3.926c-0.088,0.359,0.214,1.141,0.447,1.188c0.889,0.184,2.051,0.512,2.7,0.117
			c1.752-1.066,3.528-2.273,3.778-4.666c0.055-0.523,0.419-1.016,0.642-1.525C241.527,61.152,241.721,61.18,241.912,61.205z"/>
		<path fill-rule="evenodd" clip-rule="evenodd" fill="#B17129" d="M300.1,65.975c-0.466,1.396-0.806,2.41-1.144,3.426
			c-0.23-0.039-0.459-0.078-0.689-0.117c0-0.803-0.064-1.611,0.015-2.406c0.143-1.471,0.335-2.938,0.583-4.395
			c0.066-0.393,0.404-0.738,0.618-1.105c0.144,0.053,0.288,0.109,0.434,0.164c0,0.977,0,1.955,0,2.908
			c3.751,1.701,7.213,1.455,10.661-0.545c1.141-0.662,1.21-1.678,1.622-2.65c0.201-0.471,0.769-0.787,1.172-1.172
			c0.114,0.584,0.361,1.182,0.307,1.75c-0.049,0.523-0.528,0.996-0.634,1.527c-0.302,1.527-0.509,3.07-0.76,4.633
			c-1.349,0.189-1.349,0.189-1.097-3.143C307.566,66.959,303.823,67.475,300.1,65.975z"/>
		<path fill-rule="evenodd" clip-rule="evenodd" fill="#B17129" d="M315.031,58.676c-0.897-0.16-1.711-0.268-2.488-0.494
			c-0.103-0.029-0.178-0.848-0.004-1.006C313.006,56.762,314.765,57.738,315.031,58.676z"/>
		<path fill-rule="evenodd" clip-rule="evenodd" fill="#B17129" d="M228.202,56.084c0.658-0.061,1.319-0.123,2.157-0.199
			c-0.568,1.6-1.34,1.148-2.084,0.826C228.251,56.502,228.227,56.293,228.202,56.084z"/>
	</g>
</g>
</svg>
