<?xml version="1.0" encoding="utf-8"?>
<!-- Generator: Adobe Illustrator 16.0.0, SVG Export Plug-In . SVG Version: 6.00 Build 0)  -->
<!DOCTYPE svg PUBLIC "-//W3C//DTD SVG 1.1//EN" "http://www.w3.org/Graphics/SVG/1.1/DTD/svg11.dtd">
<svg version="1.1" id="Layer_1" xmlns="http://www.w3.org/2000/svg" xmlns:xlink="http://www.w3.org/1999/xlink" x="0px" y="0px"
	 width="34px" height="34px" viewBox="0 0 34 34" enable-background="new 0 0 34 34" xml:space="preserve">
<path fill="#002A41" d="M17,0C7.611,0,0,7.611,0,17c0,9.389,7.611,17,17,17c9.389,0,17-7.611,17-17C34,7.611,26.389,0,17,0z
	 M22.557,14.152c0.183,4.032-2.826,8.528-8.146,8.528c-1.619,0-3.125-0.476-4.394-1.289c1.521,0.178,3.039-0.244,4.244-1.188
	c-1.254-0.021-2.312-0.852-2.677-1.99c0.449,0.085,0.891,0.061,1.294-0.05c-1.379-0.276-2.33-1.518-2.299-2.846
	c0.386,0.214,0.828,0.343,1.298,0.358c-1.277-0.853-1.638-2.539-0.887-3.827c1.414,1.734,3.526,2.876,5.908,2.995
	c-0.417-1.793,0.942-3.52,2.792-3.52c0.824,0,1.57,0.348,2.092,0.905c0.654-0.129,1.268-0.367,1.82-0.696
	c-0.213,0.669-0.668,1.232-1.261,1.586c0.58-0.069,1.134-0.223,1.646-0.451C23.602,13.242,23.116,13.747,22.557,14.152z"/>
</svg>
