<?xml version="1.0" encoding="utf-8"?>
<!-- Generator: Adobe Illustrator 16.0.0, SVG Export Plug-In . SVG Version: 6.00 Build 0)  -->
<!DOCTYPE svg PUBLIC "-//W3C//DTD SVG 1.1//EN" "http://www.w3.org/Graphics/SVG/1.1/DTD/svg11.dtd">
<svg version="1.1" id="Layer_1" xmlns="http://www.w3.org/2000/svg" xmlns:xlink="http://www.w3.org/1999/xlink" x="0px" y="0px"
	 width="34px" height="34px" viewBox="0 0 34 34" enable-background="new 0 0 34 34" xml:space="preserve">
<path fill="#002A41" d="M17,0C7.611,0,0,7.611,0,17c0,9.389,7.611,17,17,17c9.389,0,17-7.611,17-17C34,7.611,26.389,0,17,0z
	 M20.691,11.803c0,0-1.248,0-1.743,0c-0.615,0-0.743,0.253-0.743,0.889c0,0.53,0,1.539,0,1.539h2.486l-0.239,2.7h-2.247V25h-3.222
	v-8.035h-1.676V14.23h1.676c0,0,0-0.393,0-2.154c0-2.02,1.081-3.076,3.478-3.076c0.393,0,2.23,0,2.23,0V11.803z"/>
</svg>
