<?xml version="1.0" encoding="utf-8"?>
<!-- Generator: Adobe Illustrator 16.0.0, SVG Export Plug-In . SVG Version: 6.00 Build 0)  -->
<!DOCTYPE svg PUBLIC "-//W3C//DTD SVG 1.1//EN" "http://www.w3.org/Graphics/SVG/1.1/DTD/svg11.dtd">
<svg version="1.1" id="Layer_1" xmlns="http://www.w3.org/2000/svg" xmlns:xlink="http://www.w3.org/1999/xlink" x="0px" y="0px"
	 width="34px" height="34px" viewBox="0 0 34 34" enable-background="new 0 0 34 34" xml:space="preserve">
<path fill="#002A41" d="M17,0C7.611,0,0,7.611,0,17c0,9.389,7.611,17,17,17c9.389,0,17-7.611,17-17C34,7.611,26.389,0,17,0z
	 M18.236,20.561c-0.992,0-1.925-0.537-2.244-1.146c0,0-0.534,2.118-0.646,2.526c-0.398,1.441-1.569,2.89-1.66,3.008
	c-0.063,0.082-0.203,0.056-0.218-0.053c-0.026-0.187-0.325-2.006,0.027-3.492c0.177-0.746,1.183-5.007,1.183-5.007
	s-0.294-0.587-0.294-1.454c0-1.362,0.79-2.379,1.772-2.379c0.836,0,1.24,0.627,1.24,1.379c0,0.841-0.536,2.098-0.812,3.262
	c-0.232,0.975,0.488,1.77,1.45,1.77c1.741,0,2.914-2.237,2.914-4.886c0-2.013-1.356-3.521-3.824-3.521
	c-2.787,0-4.525,2.079-4.525,4.401c0,0.801,0.237,1.365,0.607,1.802c0.17,0.201,0.194,0.283,0.132,0.513
	c-0.045,0.169-0.146,0.575-0.188,0.737c-0.062,0.229-0.25,0.312-0.46,0.229c-1.284-0.523-1.883-1.93-1.883-3.511
	c0-2.61,2.202-5.74,6.568-5.74c3.51,0,5.818,2.539,5.82,5.264C23.195,17.868,21.191,20.561,18.236,20.561z"/>
</svg>
